<svg width="31" height="30" viewBox="0 0 31 30" fill="none" xmlns="http://www.w3.org/2000/svg">
<path d="M20.5645 15.4764V25.5469C20.5645 26.9707 19.4482 28.125 18.0479 28.125H7.14648C5.74316 28.125 4.62695 26.9707 4.62695 25.5469V10.0781C4.63095 9.3956 4.90386 8.74216 5.38649 8.25953C5.86911 7.7769 6.52255 7.504 7.20508 7.5H12.7199C12.9108 7.50029 13.0997 7.53857 13.2757 7.61261C13.4516 7.68665 13.6111 7.79497 13.7447 7.93125L20.1402 14.4352C20.4123 14.7134 20.5646 15.0872 20.5645 15.4764Z" stroke="white" stroke-width="1.5" stroke-linejoin="round"/>
<path d="M12.5957 7.5V13.8281C12.6009 14.2616 12.7754 14.6759 13.0819 14.9825C13.3885 15.2891 13.8028 15.4636 14.2363 15.4688H20.5645" stroke="white" stroke-width="1.5" stroke-linecap="round" stroke-linejoin="round"/>
<path d="M11.1895 7.5V4.45312C11.1935 3.7706 11.4664 3.11716 11.949 2.63453C12.4316 2.1519 13.0851 1.879 13.7676 1.875H19.2754C19.4673 1.87527 19.6573 1.91351 19.8344 1.98752C20.0115 2.06154 20.1722 2.16986 20.3072 2.30625L26.7027 8.81016C26.9746 9.08547 27.127 9.45683 27.127 9.84375V19.9219C27.127 21.3457 26.0107 22.5 24.6104 22.5H21.0332" stroke="white" stroke-width="1.5" stroke-linejoin="round"/>
<path d="M19.1582 1.875V8.20312C19.1634 8.63664 19.3379 9.05094 19.6444 9.3575C19.951 9.66407 20.3653 9.83858 20.7988 9.84375H27.127" stroke="white" stroke-width="1.5" stroke-linecap="round" stroke-linejoin="round"/>
</svg>
