<svg width="31" height="30" viewBox="0 0 31 30" fill="none" xmlns="http://www.w3.org/2000/svg">
<path fill-rule="evenodd" clip-rule="evenodd" d="M10.2522 5.9375C10.2522 5.66437 13.0747 3.75 15.8772 3.75C18.6797 3.75 21.5022 5.66437 21.5022 5.9375C21.5022 6.9125 21.3984 7.49 21.3109 7.80437C21.2528 8.01062 21.0597 8.125 20.8453 8.125H10.909C10.6947 8.125 10.5015 8.01062 10.4434 7.80437C10.3559 7.49 10.2522 6.9125 10.2522 5.9375ZM14.9397 5.625C14.7739 5.625 14.6149 5.69085 14.4977 5.80806C14.3805 5.92527 14.3147 6.08424 14.3147 6.25C14.3147 6.41576 14.3805 6.57473 14.4977 6.69194C14.6149 6.80915 14.7739 6.875 14.9397 6.875H16.8147C16.9804 6.875 17.1394 6.80915 17.2566 6.69194C17.3738 6.57473 17.4397 6.41576 17.4397 6.25C17.4397 6.08424 17.3738 5.92527 17.2566 5.80806C17.1394 5.69085 16.9804 5.625 16.8147 5.625H14.9397ZM10.9009 12.0112C8.81966 11.3675 9.34466 10.2175 10.1384 9.375H21.7897C22.4247 10.1862 22.7653 11.2806 20.8459 11.9356C20.8667 12.121 20.8772 12.3092 20.8772 12.5C20.8769 13.177 20.7391 13.847 20.4722 14.4692C20.2053 15.0914 19.8148 15.6529 19.3244 16.1197C18.834 16.5865 18.2539 16.9488 17.6193 17.1847C16.9846 17.4206 16.3087 17.5251 15.6325 17.492C14.9563 17.4589 14.2938 17.2888 13.6853 16.992C13.0768 16.6952 12.5349 16.2779 12.0924 15.7654C11.65 15.2529 11.3163 14.6559 11.1114 14.0106C10.9066 13.3653 10.835 12.6851 10.9009 12.0112ZM15.7072 12.5C17.3584 12.5 18.6384 12.4125 19.6197 12.26C19.6247 12.3392 19.6272 12.4192 19.6272 12.5C19.6267 13.0005 19.5261 13.4958 19.3312 13.9568C19.1364 14.4177 18.8512 14.835 18.4926 15.1841C18.1339 15.5331 17.709 15.8068 17.2429 15.9891C16.7768 16.1714 16.279 16.2585 15.7787 16.2454C15.2784 16.2322 14.7858 16.1191 14.3299 15.9126C13.874 15.7061 13.4641 15.4105 13.1243 15.0431C12.7844 14.6757 12.5216 14.244 12.3512 13.7734C12.1808 13.3028 12.1063 12.8029 12.1322 12.3031C13.0465 12.4294 14.2184 12.5 15.7072 12.5ZM21.1378 21.625C20.5725 20.7429 19.7944 20.0172 18.8751 19.5148C17.9558 19.0124 16.9248 18.7494 15.8772 18.75C14.8291 18.7492 13.7977 19.0123 12.878 19.5149C11.9583 20.0176 11.1799 20.7437 10.6147 21.6262C10.4044 21.3035 10.0823 21.0698 9.71028 20.97L8.50278 20.6469C8.10256 20.5396 7.6761 20.5956 7.31721 20.8028C6.95832 21.0099 6.69639 21.351 6.58903 21.7512L6.10403 23.5625C6.05092 23.7607 6.03736 23.9674 6.06415 24.1709C6.09094 24.3744 6.15754 24.5705 6.26015 24.7482C6.36276 24.926 6.49937 25.0817 6.66218 25.2066C6.82499 25.3315 7.01081 25.4232 7.20903 25.4762L8.41591 25.8C8.61894 25.8544 8.83087 25.8673 9.03899 25.8378C9.24711 25.8084 9.44716 25.7373 9.62716 25.6287C9.62766 25.7945 9.69398 25.9533 9.81154 26.0701C9.92911 26.187 10.0883 26.2524 10.254 26.2519C10.4198 26.2514 10.5786 26.1851 10.6954 26.0675C10.8123 25.9499 10.8777 25.7908 10.8772 25.625V25C10.8772 24.7617 10.8934 24.5277 10.9259 24.2981L14.1784 25.17C14.3294 25.4932 14.5694 25.7665 14.8703 25.9581C15.1712 26.1496 15.5205 26.2514 15.8772 26.2514C16.2338 26.2514 16.5831 26.1496 16.884 25.9581C17.1849 25.7665 17.4249 25.4932 17.5759 25.17L20.8284 24.2981C20.8605 24.5277 20.8767 24.7617 20.8772 25V25.625C20.8763 25.7908 20.9414 25.9501 21.058 26.0679C21.1746 26.1857 21.3333 26.2523 21.499 26.2531C21.6648 26.254 21.8241 26.1889 21.9419 26.0723C22.0597 25.9556 22.1263 25.797 22.1272 25.6312C22.4772 25.8412 22.9097 25.9144 23.3353 25.8L24.5428 25.4769C24.741 25.4238 24.9268 25.3322 25.0896 25.2073C25.2525 25.0823 25.3891 24.9266 25.4917 24.7489C25.5943 24.5712 25.6609 24.375 25.6877 24.1715C25.7145 23.9681 25.7009 23.7613 25.6478 23.5631L25.1622 21.7519C25.0548 21.3517 24.7929 21.0105 24.434 20.8034C24.0751 20.5963 23.6486 20.5402 23.2484 20.6475L22.0409 20.9706C21.6697 21.0701 21.3482 21.3034 21.1378 21.625ZM11.254 23.0912C11.5918 22.2749 12.1397 21.5625 12.8419 21.0264C13.5441 20.4903 14.3757 20.1495 15.2522 20.0387V22.6069C14.9719 22.7059 14.7192 22.8702 14.5149 23.0861C14.3106 23.302 14.1606 23.5634 14.0772 23.8487L11.254 23.0912ZM20.5003 23.0912C20.1625 22.2749 19.6146 21.5625 18.9124 21.0264C18.2102 20.4903 17.3787 20.1495 16.5022 20.0387V22.6069C17.0672 22.8069 17.5084 23.2694 17.6772 23.8487L20.5003 23.0912ZM15.8772 25C16.0429 25 16.2019 24.9342 16.3191 24.8169C16.4363 24.6997 16.5022 24.5408 16.5022 24.375C16.5022 24.2092 16.4363 24.0503 16.3191 23.9331C16.2019 23.8158 16.0429 23.75 15.8772 23.75C15.7114 23.75 15.5524 23.8158 15.4352 23.9331C15.318 24.0503 15.2522 24.2092 15.2522 24.375C15.2522 24.5408 15.318 24.6997 15.4352 24.8169C15.5524 24.9342 15.7114 25 15.8772 25Z" fill="white"/>
</svg>
