<svg width="31" height="30" viewBox="0 0 31 30" fill="none" xmlns="http://www.w3.org/2000/svg">
<path d="M25.0245 16.875H20.1807C19.5386 16.8743 18.9225 17.1283 18.4674 17.5813C18.0124 18.0342 17.7555 18.6492 17.7532 19.2913V24.135C17.7529 24.4539 17.8154 24.7697 17.9373 25.0644C18.0592 25.359 18.238 25.6268 18.4635 25.8522C18.6889 26.0777 18.9567 26.2565 19.2514 26.3784C19.546 26.5003 19.8618 26.5628 20.1807 26.5625H25.0245C25.6663 26.5599 26.2809 26.3029 26.7336 25.8478C27.1863 25.3928 27.4401 24.7769 27.4395 24.135V19.2913C27.4398 18.974 27.3775 18.6598 27.2563 18.3667C27.135 18.0735 26.9572 17.8072 26.7329 17.5829C26.5085 17.3585 26.2422 17.1807 25.949 17.0594C25.6559 16.9382 25.3417 16.8759 25.0245 16.8763M11.5732 16.875H6.72945C6.0877 16.8786 5.47346 17.1361 5.02095 17.5912C4.56844 18.0463 4.31444 18.662 4.31445 19.3038V24.1475C4.31413 24.4647 4.37637 24.7789 4.49762 25.0721C4.61886 25.3652 4.79674 25.6316 5.02106 25.8559C5.24538 26.0802 5.51174 26.2581 5.80488 26.3793C6.09803 26.5006 6.41222 26.5628 6.72945 26.5625H11.5732C12.2151 26.5632 12.831 26.3093 13.286 25.8567C13.7411 25.404 13.9981 24.7894 14.0007 24.1475V19.3038C14.001 18.9849 13.9385 18.6691 13.8166 18.3744C13.6947 18.0797 13.5159 17.812 13.2904 17.5865C13.065 17.361 12.7972 17.1822 12.5026 17.0604C12.2079 16.9385 11.8921 16.8759 11.5732 16.8763M11.5732 3.4375H6.72945C6.41222 3.43717 6.09803 3.49941 5.80488 3.62066C5.51174 3.74191 5.24538 3.91979 5.02106 4.1441C4.79674 4.36842 4.61886 4.63478 4.49762 4.92793C4.37637 5.22108 4.31413 5.53527 4.31445 5.8525V10.6963C4.31379 11.3381 4.56761 11.954 5.0203 12.4091C5.47299 12.8641 6.08761 13.1211 6.72945 13.1238H11.5732C11.8921 13.1241 12.2079 13.0615 12.5026 12.9396C12.7972 12.8178 13.065 12.639 13.2904 12.4135C13.5159 12.188 13.6947 11.9203 13.8166 11.6256C13.9385 11.3309 14.001 11.0151 14.0007 10.6963V5.8525C13.9981 5.21065 13.7411 4.59603 13.286 4.14335C12.831 3.69066 12.2151 3.43683 11.5732 3.4375ZM25.0245 3.4375H20.1807C19.5389 3.43683 18.9229 3.69066 18.4679 4.14335C18.0129 4.59603 17.7559 5.21065 17.7532 5.8525V10.6963C17.7535 11.34 18.0094 11.9572 18.4646 12.4124C18.9197 12.8676 19.537 13.1234 20.1807 13.1238H25.0245C25.6663 13.1211 26.2809 12.8641 26.7336 12.4091C27.1863 11.954 27.4401 11.3381 27.4395 10.6963V5.8525C27.4398 5.53527 27.3775 5.22108 27.2563 4.92793C27.135 4.63478 26.9572 4.36842 26.7329 4.1441C26.5085 3.91979 26.2422 3.74191 25.949 3.62066C25.6559 3.49941 25.3417 3.43717 25.0245 3.4375Z" stroke="white" stroke-width="1.5" stroke-linecap="round" stroke-linejoin="round"/>
</svg>
