<svg width="30" height="30" viewBox="0 0 30 30" fill="none" xmlns="http://www.w3.org/2000/svg">
<path d="M3.33333 26.6667H28.3333C29.2538 26.6667 30 27.4129 30 28.3333C30 29.2538 29.2538 30 28.3333 30H1.66667C0.746192 30 0 29.2538 0 28.3333V1.66667C0 0.746192 0.746192 0 1.66667 0C2.58714 0 3.33333 0.746192 3.33333 1.66667V26.6667Z" fill="#59CB92"/>
<path opacity="0.5" d="M9.54956 19.4732C8.92001 20.1447 7.86528 20.1788 7.19376 19.5492C6.52224 18.9197 6.48822 17.8649 7.11777 17.1934L13.3678 10.5268C13.9766 9.87731 14.9884 9.82099 15.6655 10.3988L20.5984 14.6082L27.0255 6.46725C27.5959 5.74478 28.6439 5.62148 29.3664 6.19185C30.0889 6.76222 30.2122 7.81026 29.6418 8.53273L22.1418 18.0327C21.556 18.7748 20.4709 18.8815 19.7518 18.2678L14.7117 13.9669L9.54956 19.4732Z" fill="#59CB92"/>
</svg>
