<svg width="20" height="21" viewBox="0 0 20 21" fill="none" xmlns="http://www.w3.org/2000/svg">
<g clip-path="url(#clip0_334_6291)">
<path d="M20 8.95461C20 11.2753 19.0781 13.5008 17.4372 15.1418C15.7962 16.7827 13.5706 17.7046 11.25 17.7046V16.4546C12.6798 16.4541 14.0797 16.045 15.2847 15.2753C16.4897 14.5057 17.4496 13.4076 18.0513 12.1106C18.6529 10.8135 18.8713 9.37147 18.6806 7.95442C18.4899 6.53737 17.8982 5.20436 16.975 4.11246C16.0519 3.02057 14.8359 2.2153 13.4703 1.79155C12.1048 1.3678 10.6465 1.34323 9.26741 1.72074C7.88833 2.09825 6.64589 2.8621 5.68651 3.92228C4.72714 4.98246 4.0908 6.29479 3.8525 7.70461H2.5875C2.90785 5.51841 4.0432 3.53427 5.7657 2.1504C7.48819 0.766526 9.67035 0.0853393 11.8742 0.24355C14.0781 0.40176 16.1406 1.38766 17.6477 3.00338C19.1549 4.6191 19.9952 6.74507 20 8.95461ZM10 8.65961C10.4637 9.07461 10.825 9.60461 11.0363 10.2046H14.3737C14.5395 10.2046 14.6985 10.1388 14.8157 10.0215C14.9329 9.90434 14.9987 9.74537 14.9987 9.57961C14.9987 9.41385 14.9329 9.25488 14.8157 9.13767C14.6985 9.02046 14.5395 8.95461 14.3737 8.95461H11.25V4.57961C11.25 4.41385 11.1842 4.25488 11.0669 4.13767C10.9497 4.02046 10.7908 3.95461 10.625 3.95461C10.4592 3.95461 10.3003 4.02046 10.1831 4.13767C10.0658 4.25488 10 4.41385 10 4.57961V8.65961ZM0 11.4546C0 10.7916 0.263392 10.1557 0.732233 9.68684C1.20107 9.218 1.83696 8.95461 2.5 8.95461H7.5C8.16304 8.95461 8.79893 9.218 9.26777 9.68684C9.73661 10.1557 10 10.7916 10 11.4546V17.7046C10 18.3676 9.73661 19.0035 9.26777 19.4724C8.79893 19.9412 8.16304 20.2046 7.5 20.2046H2.5C1.83696 20.2046 1.20107 19.9412 0.732233 19.4724C0.263392 19.0035 0 18.3676 0 17.7046V11.4546ZM6.875 11.4546H3.125C2.95924 11.4546 2.80027 11.5205 2.68306 11.6377C2.56585 11.7549 2.5 11.9138 2.5 12.0796C2.5 12.2454 2.56585 12.4043 2.68306 12.5216C2.80027 12.6388 2.95924 12.7046 3.125 12.7046H6.875C7.04076 12.7046 7.19973 12.6388 7.31694 12.5216C7.43415 12.4043 7.5 12.2454 7.5 12.0796C7.5 11.9138 7.43415 11.7549 7.31694 11.6377C7.19973 11.5205 7.04076 11.4546 6.875 11.4546ZM6.875 13.9546H3.125C2.95924 13.9546 2.80027 14.0205 2.68306 14.1377C2.56585 14.2549 2.5 14.4138 2.5 14.5796C2.5 14.7454 2.56585 14.9043 2.68306 15.0216C2.80027 15.1388 2.95924 15.2046 3.125 15.2046H6.875C7.04076 15.2046 7.19973 15.1388 7.31694 15.0216C7.43415 14.9043 7.5 14.7454 7.5 14.5796C7.5 14.4138 7.43415 14.2549 7.31694 14.1377C7.19973 14.0205 7.04076 13.9546 6.875 13.9546ZM6.875 16.4546H3.125C2.95924 16.4546 2.80027 16.5205 2.68306 16.6377C2.56585 16.7549 2.5 16.9138 2.5 17.0796C2.5 17.2454 2.56585 17.4043 2.68306 17.5215C2.80027 17.6388 2.95924 17.7046 3.125 17.7046H6.875C7.04076 17.7046 7.19973 17.6388 7.31694 17.5215C7.43415 17.4043 7.5 17.2454 7.5 17.0796C7.5 16.9138 7.43415 16.7549 7.31694 16.6377C7.19973 16.5205 7.04076 16.4546 6.875 16.4546Z" fill="#FF6200"/>
</g>
<defs>
<clipPath id="clip0_334_6291">
<rect width="20" height="20" fill="white" transform="translate(0 0.20459)"/>
</clipPath>
</defs>
</svg>
