<svg width="20" height="21" viewBox="0 0 20 21" fill="none" xmlns="http://www.w3.org/2000/svg">
<path d="M8.45512 3.20666C8.57964 2.89892 8.79321 2.63538 9.06848 2.44981C9.34374 2.26424 9.66815 2.1651 10.0001 2.1651C10.3321 2.1651 10.6565 2.26424 10.9318 2.44981C11.207 2.63538 11.4206 2.89892 11.5451 3.20666C12.7776 3.54519 13.8648 4.27915 14.6396 5.29572C15.4144 6.31228 15.8338 7.55518 15.8335 8.83333V12.7475L17.3601 15.0375C17.4439 15.163 17.4919 15.3089 17.4993 15.4596C17.5066 15.6103 17.4729 15.7601 17.4017 15.8931C17.3305 16.0262 17.2246 16.1374 17.0951 16.2149C16.9657 16.2924 16.8177 16.3334 16.6668 16.3333H12.8876C12.7873 17.0276 12.4402 17.6624 11.9099 18.1216C11.3796 18.5808 10.7016 18.8335 10.0001 18.8335C9.29866 18.8335 8.62067 18.5808 8.09037 18.1216C7.56007 17.6624 7.21296 17.0276 7.11262 16.3333H3.33346C3.18259 16.3334 3.03454 16.2924 2.90512 16.2149C2.77569 16.1374 2.66974 16.0262 2.59856 15.8931C2.52739 15.7601 2.49366 15.6103 2.50098 15.4596C2.5083 15.3089 2.55639 15.163 2.64012 15.0375L4.16679 12.7475V8.83333C4.16679 6.14666 5.98346 3.88333 8.45512 3.20666ZM8.82179 16.3333C8.90786 16.5772 9.06745 16.7884 9.27856 16.9378C9.48968 17.0871 9.74193 17.1673 10.0005 17.1673C10.2592 17.1673 10.5114 17.0871 10.7225 16.9378C10.9336 16.7884 11.0932 16.5772 11.1793 16.3333H8.82179ZM10.0001 4.66666C8.89506 4.66666 7.83525 5.10565 7.05385 5.88705C6.27244 6.66845 5.83346 7.72826 5.83346 8.83333V13C5.83349 13.1646 5.78478 13.3255 5.69346 13.4625L4.89096 14.6667H15.1085L14.306 13.4625C14.2149 13.3254 14.1665 13.1645 14.1668 13V8.83333C14.1668 7.72826 13.7278 6.66845 12.9464 5.88705C12.165 5.10565 11.1052 4.66666 10.0001 4.66666Z" fill="#FF6200"/>
</svg>
