<svg width="578" height="397" viewBox="0 0 578 397" fill="none" xmlns="http://www.w3.org/2000/svg">
<path d="M288.893 396.93C448.445 396.93 577.786 379.69 577.786 358.424C577.786 337.158 448.445 319.918 288.893 319.918C129.342 319.918 0 337.158 0 358.424C0 379.69 129.342 396.93 288.893 396.93Z" fill="#EDF0FC"/>
<path d="M527.049 244.949C527.049 244.949 473.829 268.092 458.551 288.301C443.273 308.509 455.822 332.486 455.822 332.486C455.822 332.486 481.849 339.898 498.528 320.83C515.21 301.761 527.049 244.949 527.049 244.949Z" fill="#59CB92"/>
<mask id="mask0_234_12859" style="mask-type:luminance" maskUnits="userSpaceOnUse" x="450" y="244" width="78" height="90">
<path d="M527.049 244.949C527.049 244.949 473.829 268.092 458.551 288.301C443.273 308.509 455.822 332.486 455.822 332.486C455.822 332.486 481.849 339.898 498.528 320.83C515.21 301.761 527.049 244.949 527.049 244.949Z" fill="white"/>
</mask>
<g mask="url(#mask0_234_12859)">
<path d="M541.467 278.099C543.661 277.761 545.854 277.423 548.046 277.085C549.173 276.911 548.997 275.143 547.864 275.318C532.394 277.705 516.925 280.091 501.455 282.479C500.006 282.702 498.558 282.925 497.109 283.149C498.314 281.669 499.518 280.188 500.722 278.708C504.939 273.525 509.156 268.342 513.374 263.16C528.716 260.792 544.059 258.426 559.401 256.058C561.593 255.72 563.787 255.382 565.98 255.043C567.107 254.869 566.931 253.101 565.799 253.275C550.329 255.663 534.86 258.049 519.39 260.436C517.941 260.66 516.493 260.883 515.044 261.107C517.378 258.237 519.713 255.369 522.047 252.5C524.4 249.609 526.753 246.716 529.107 243.824C530.186 242.498 531.524 241.186 532.435 239.735C532.476 239.668 532.537 239.61 532.586 239.549C533.307 238.663 531.931 237.539 531.208 238.428C528.383 241.901 525.556 245.374 522.731 248.847C519.709 252.56 516.688 256.273 513.668 259.987C512.898 245.108 512.129 230.229 511.359 215.35C511.244 213.133 511.129 210.917 511.016 208.701C510.956 207.556 509.19 207.742 509.248 208.883C510.057 224.515 510.866 240.146 511.673 255.779C511.782 257.865 511.889 259.953 511.998 262.04C508.787 265.987 505.574 269.934 502.363 273.881C500.153 276.598 497.943 279.314 495.733 282.031C494.963 267.152 494.194 252.272 493.424 237.393C493.309 235.177 493.194 232.96 493.079 230.744C493.021 229.6 491.254 229.785 491.312 230.925C492.121 246.557 492.93 262.189 493.738 277.821C493.846 279.908 493.954 281.996 494.062 284.082C488.64 290.745 483.218 297.408 477.796 304.073C477.026 289.193 476.258 274.314 475.488 259.435C475.373 257.219 475.258 255.003 475.143 252.786C475.085 251.642 473.317 251.828 473.376 252.967C474.185 268.6 474.993 284.231 475.801 299.863C475.908 301.95 476.017 304.038 476.125 306.124C470.704 312.787 465.281 319.451 459.86 326.115C459.09 311.236 458.321 296.356 457.551 281.478C457.437 279.261 457.322 277.045 457.207 274.828C457.148 273.684 455.381 273.87 455.44 275.009C456.248 290.642 457.057 306.273 457.866 321.905C457.973 323.992 458.082 326.08 458.189 328.167C457.548 328.954 456.907 329.742 456.266 330.53C453.912 333.422 451.56 336.315 449.206 339.206C448.126 340.533 446.789 341.845 445.878 343.296C445.836 343.362 445.775 343.421 445.727 343.482C445.005 344.368 446.382 345.491 447.104 344.603C449.93 341.13 452.757 337.656 455.582 334.183C456.91 332.551 458.238 330.918 459.566 329.287C474.907 326.92 490.249 324.554 505.592 322.186C507.785 321.848 509.979 321.51 512.171 321.172C513.298 320.998 513.122 319.23 511.989 319.404C496.519 321.792 481.05 324.178 465.58 326.565C464.132 326.789 462.683 327.012 461.234 327.236C466.139 321.208 471.043 315.18 475.948 309.152C476.465 308.517 476.983 307.882 477.499 307.245C492.841 304.878 508.184 302.511 523.526 300.144C525.718 299.806 527.912 299.468 530.105 299.128C531.232 298.955 531.056 297.186 529.924 297.361C514.454 299.748 498.985 302.135 483.515 304.522C482.066 304.745 480.618 304.969 479.169 305.192C484.591 298.529 490.013 291.866 495.434 285.202C510.784 282.834 526.125 280.467 541.467 278.099Z" fill="#59CB92"/>
</g>
<path opacity="0.1" d="M517.132 281.81C515.341 284.355 513.447 286.881 511.421 289.37C493.801 311.026 471.822 324.615 453.599 326.978C454.74 330.408 455.822 332.485 455.822 332.485C455.822 332.485 481.849 339.896 498.528 320.828C505.867 312.443 512.265 296.756 517.132 281.81Z" fill="#0046A0"/>
<path d="M570.477 296.249C570.477 296.249 515.121 296.692 491.878 306.755C468.636 316.819 465.74 338.273 465.74 338.273C465.74 338.273 482.663 351.776 506.415 342.983C530.166 334.192 570.477 296.249 570.477 296.249Z" fill="#59CB92"/>
<mask id="mask1_234_12859" style="mask-type:luminance" maskUnits="userSpaceOnUse" x="465" y="296" width="106" height="50">
<path d="M570.477 296.249C570.477 296.249 515.121 296.692 491.878 306.755C468.636 316.819 465.74 338.273 465.74 338.273C465.74 338.273 482.663 351.776 506.415 342.983C530.166 334.192 570.477 296.249 570.477 296.249Z" fill="white"/>
</mask>
<g mask="url(#mask1_234_12859)">
<path d="M564.113 325.004C566.061 325.437 568.009 325.869 569.958 326.302C570.959 326.524 571.775 325.175 570.769 324.952C557.03 321.902 543.29 318.85 529.551 315.8C528.264 315.514 526.979 315.229 525.692 314.943C527.463 314.233 529.235 313.521 531.006 312.811C537.208 310.323 543.409 307.834 549.61 305.346C563.236 308.371 576.862 311.396 590.487 314.422C592.435 314.854 594.383 315.287 596.332 315.72C597.332 315.943 598.149 314.593 597.143 314.37C583.404 311.32 569.664 308.269 555.925 305.218C554.638 304.933 553.353 304.647 552.066 304.361C555.498 302.983 558.932 301.607 562.364 300.229C565.824 298.841 569.285 297.452 572.744 296.063C574.332 295.427 576.119 294.88 577.638 294.1C577.706 294.065 577.788 294.04 577.86 294.01C578.921 293.585 578.422 292.335 577.36 292.762C573.204 294.43 569.049 296.097 564.893 297.764C560.45 299.546 556.007 301.33 551.566 303.112C559.009 291.975 566.453 280.836 573.896 269.699C575.005 268.041 576.114 266.381 577.222 264.722C577.794 263.866 576.272 263.454 575.702 264.307C567.882 276.008 560.062 287.709 552.242 299.41C551.198 300.973 550.154 302.535 549.11 304.098C544.387 305.992 539.665 307.888 534.942 309.782C531.693 311.087 528.443 312.391 525.192 313.695C532.635 302.558 540.079 291.419 547.522 280.282C548.631 278.624 549.74 276.964 550.848 275.305C551.42 274.449 549.899 274.037 549.328 274.89C541.508 286.591 533.688 298.292 525.868 309.992C524.824 311.555 523.78 313.117 522.736 314.68C514.764 317.878 506.79 321.077 498.818 324.277C506.261 313.14 513.705 302.001 521.148 290.864C522.257 289.205 523.366 287.546 524.474 285.887C525.047 285.031 523.525 284.619 522.954 285.471C515.134 297.173 507.314 308.874 499.494 320.575C498.45 322.138 497.406 323.7 496.362 325.261C488.39 328.46 480.416 331.66 472.444 334.858C479.887 323.721 487.331 312.583 494.774 301.446C495.883 299.787 496.992 298.127 498.1 296.469C498.673 295.613 497.151 295.201 496.58 296.053C488.76 307.754 480.94 319.456 473.12 331.157C472.076 332.719 471.032 334.282 469.988 335.844C469.046 336.223 468.103 336.601 467.16 336.979C463.699 338.368 460.238 339.756 456.779 341.145C455.192 341.781 453.404 342.328 451.884 343.108C451.816 343.143 451.735 343.168 451.662 343.196C450.601 343.622 451.101 344.871 452.163 344.444C456.318 342.777 460.474 341.11 464.629 339.442C466.582 338.659 468.535 337.875 470.487 337.091C484.113 340.116 497.738 343.141 511.364 346.168C513.312 346.6 515.26 347.033 517.207 347.466C518.208 347.688 519.024 346.339 518.018 346.115C504.279 343.065 490.54 340.014 476.801 336.964C475.514 336.678 474.229 336.392 472.942 336.106C480.154 333.212 487.366 330.318 494.578 327.425C495.338 327.121 496.098 326.815 496.86 326.511C510.485 329.536 524.111 332.561 537.737 335.587C539.685 336.02 541.633 336.452 543.581 336.885C544.582 337.107 545.398 335.758 544.392 335.535C530.653 332.485 516.914 329.433 503.175 326.383C501.888 326.098 500.601 325.812 499.316 325.527C507.288 322.329 515.262 319.13 523.234 315.93C536.862 318.954 550.488 321.979 564.113 325.004Z" fill="#74FF74"/>
</g>
<path opacity="0.1" d="M542.524 320.173C539.704 321.482 536.811 322.745 533.832 323.94C507.921 334.337 482.875 337.472 466.934 333.551C465.994 336.417 465.738 338.273 465.738 338.273C465.738 338.273 482.661 351.776 506.413 342.983C516.861 339.117 530.509 329.611 542.524 320.173Z" fill="#0046A0"/>
<path d="M15.5562 181.066C15.5562 181.066 48.2488 229.015 70.9586 240.242C93.6697 251.469 114.874 234.656 114.874 234.656C114.874 234.656 117.286 207.702 95.4331 194.885C73.5807 182.068 15.5562 181.066 15.5562 181.066Z" fill="#59CB92"/>
<mask id="mask2_234_12859" style="mask-type:luminance" maskUnits="userSpaceOnUse" x="15" y="181" width="100" height="64">
<path d="M15.5562 181.066C15.5562 181.066 48.2488 229.015 70.9586 240.242C93.6697 251.469 114.874 234.656 114.874 234.656C114.874 234.656 117.286 207.702 95.4331 194.885C73.5807 182.068 15.5562 181.066 15.5562 181.066Z" fill="white"/>
</mask>
<g mask="url(#mask2_234_12859)">
<path d="M45.4245 160.698C44.682 158.607 43.9394 156.515 43.1956 154.425C42.8137 153.35 41.1102 153.854 41.4946 154.934C46.7337 169.684 51.9728 184.434 57.2119 199.184C57.7023 200.566 58.1928 201.946 58.6833 203.328C57.0035 202.422 55.3237 201.515 53.6451 200.609C47.7645 197.437 41.8839 194.263 36.0034 191.09C30.8079 176.462 25.6113 161.834 20.4158 147.205C19.6733 145.113 18.9307 143.023 18.1869 140.931C17.805 139.857 16.1015 140.361 16.4859 141.441C21.725 156.191 26.9641 170.941 32.2032 185.691C32.6937 187.072 33.1841 188.453 33.6746 189.834C30.4198 188.078 27.165 186.322 23.9102 184.565C20.6292 182.794 17.347 181.025 14.066 179.254C12.5609 178.441 11.0221 177.373 9.4247 176.75C9.35232 176.721 9.28243 176.674 9.21379 176.637C8.2079 176.094 7.36301 177.656 8.37015 178.2C12.3101 180.327 16.2513 182.452 20.1912 184.579C24.4044 186.851 28.6165 189.125 32.8297 191.398C18.3566 194.939 3.88483 198.478 -10.587 202.018C-12.7423 202.545 -14.8988 203.073 -17.0541 203.6C-18.1673 203.872 -17.6532 205.573 -16.5449 205.302C-1.34054 201.583 13.8638 197.864 29.0695 194.145C31.1 193.648 33.1292 193.151 35.1597 192.655C39.6375 195.071 44.1166 197.487 48.5944 199.903C51.677 201.565 54.7583 203.229 57.8409 204.891C43.3678 208.431 28.896 211.971 14.4242 215.511C12.2689 216.038 10.1124 216.565 7.95706 217.093C6.84384 217.365 7.35802 219.066 8.46624 218.795C23.6706 215.076 38.875 211.357 54.0806 207.638C56.1111 207.141 58.1404 206.645 60.1709 206.148C67.7313 210.228 75.2917 214.306 82.8508 218.386C68.379 221.925 53.9059 225.466 39.4341 229.005C37.2788 229.532 35.1223 230.06 32.967 230.586C31.8538 230.858 32.3679 232.559 33.4762 232.287C48.6805 228.568 63.8849 224.849 79.0906 221.13C81.1211 220.634 83.1503 220.137 85.1808 219.64C92.7412 223.72 100.302 227.798 107.861 231.878C93.3889 235.419 78.9158 238.958 64.444 242.497C62.2887 243.025 60.1322 243.552 57.9769 244.08C56.8637 244.352 57.3779 246.053 58.4861 245.781C73.6905 242.062 88.8949 238.343 104.1 234.624C106.131 234.127 108.16 233.63 110.191 233.134C111.084 233.615 111.978 234.098 112.871 234.58C116.152 236.351 119.435 238.121 122.716 239.891C124.221 240.704 125.76 241.772 127.357 242.396C127.429 242.425 127.499 242.472 127.568 242.51C128.574 243.053 129.419 241.49 128.412 240.947C124.472 238.821 120.53 236.695 116.59 234.569C114.738 233.569 112.886 232.571 111.036 231.571C105.84 216.943 100.644 202.314 95.4481 187.686C94.7055 185.595 93.963 183.503 93.2192 181.413C92.8373 180.338 91.1338 180.842 91.5182 181.922C96.7573 196.672 101.996 211.422 107.235 226.172C107.726 227.554 108.216 228.934 108.707 230.316C101.868 226.625 95.0288 222.935 88.1897 219.245C87.4684 218.855 86.7483 218.466 86.0269 218.078C80.8315 203.45 75.6349 188.822 70.4394 174.193C69.6969 172.101 68.9543 170.01 68.2105 167.919C67.8286 166.845 66.1251 167.349 66.5095 168.429C71.7486 183.179 76.9877 197.929 82.2268 212.679C82.7173 214.06 83.2077 215.441 83.6982 216.822C76.1378 212.743 68.5774 208.664 61.0183 204.584C55.8154 189.955 50.6199 175.326 45.4245 160.698Z" fill="#59CB92"/>
</g>
<path opacity="0.1" d="M53.6226 183.909C56.458 185.192 59.2947 186.581 62.1189 188.104C86.6896 201.362 104.15 220.41 109.882 237.868C113.037 236.105 114.876 234.655 114.876 234.655C114.876 234.655 117.287 207.701 95.4343 194.884C85.8222 189.245 69.2138 185.896 53.6226 183.909Z" fill="#0046A0"/>
<path d="M57.8247 128.806C57.8247 128.806 68.6174 183.103 82.8521 204.051C97.0868 225 118.705 223.83 118.705 223.83C118.705 223.83 128.802 204.68 115.721 182.992C102.639 161.304 57.8247 128.806 57.8247 128.806Z" fill="#59CB92"/>
<mask id="mask3_234_12859" style="mask-type:luminance" maskUnits="userSpaceOnUse" x="57" y="128" width="66" height="96">
<path d="M57.8247 128.806C57.8247 128.806 68.6174 183.103 82.8521 204.051C97.0868 225 118.705 223.83 118.705 223.83C118.705 223.83 128.802 204.68 115.721 182.992C102.639 161.304 57.8247 128.806 57.8247 128.806Z" fill="white"/>
</mask>
<g mask="url(#mask3_234_12859)">
<path d="M87.2637 129.677C87.3236 127.683 87.3848 125.689 87.4447 123.695C87.4759 122.67 85.997 122.121 85.9658 123.15C85.5402 137.218 85.1134 151.285 84.6878 165.353C84.6479 166.669 84.608 167.987 84.568 169.304C83.5384 167.697 82.5088 166.09 81.4792 164.483C77.875 158.857 74.2695 153.23 70.6653 147.604C71.0884 133.652 71.5102 119.702 71.9333 105.751C71.9932 103.757 72.0543 101.762 72.1142 99.7679C72.1454 98.7433 70.6665 98.1942 70.6353 99.2238C70.2098 113.291 69.783 127.359 69.3574 141.425C69.3175 142.742 69.2775 144.059 69.2376 145.376C67.242 142.262 65.2477 139.149 63.2522 136.034C61.2404 132.894 59.2299 129.755 57.2181 126.615C56.2958 125.175 55.4247 123.521 54.3739 122.175C54.3265 122.113 54.2865 122.038 54.2454 121.974C53.6288 121.011 52.4957 121.735 53.1122 122.699C55.5271 126.469 57.9432 130.239 60.3581 134.009C62.9402 138.04 65.5223 142.07 68.1044 146.101C55.7704 140.873 43.4377 135.644 31.1037 130.416C29.2666 129.638 27.4296 128.859 25.5925 128.08C24.644 127.678 24.5242 129.251 25.469 129.65C38.427 135.142 51.3837 140.635 64.3417 146.129C66.0714 146.862 67.8024 147.595 69.5321 148.329C72.2765 152.613 75.0221 156.898 77.7677 161.182C79.6571 164.131 81.5466 167.079 83.4348 170.028C71.1009 164.8 58.7681 159.571 46.4341 154.343C44.5971 153.564 42.76 152.785 40.923 152.007C39.9745 151.605 39.8547 153.177 40.7994 153.577C53.7574 159.069 66.7141 164.562 79.6721 170.055C81.4018 170.789 83.1328 171.522 84.8625 172.256C89.4964 179.489 94.1314 186.722 98.7653 193.956C86.4313 188.728 74.0985 183.5 61.7646 178.271C59.9275 177.492 58.0905 176.713 56.2534 175.935C55.3049 175.533 55.1851 177.105 56.1298 177.506C69.0878 182.998 82.0446 188.491 95.0025 193.983C96.7323 194.717 98.4632 195.45 100.193 196.183C104.827 203.417 109.462 210.65 114.096 217.884C101.762 212.656 89.429 207.428 77.095 202.199C75.2579 201.42 73.4209 200.641 71.5838 199.863C70.6353 199.461 70.5155 201.033 71.4603 201.433C84.4183 206.925 97.375 212.417 110.333 217.911C112.063 218.645 113.794 219.377 115.523 220.111C116.071 220.966 116.619 221.821 117.167 222.677C119.179 225.817 121.189 228.956 123.201 232.096C124.123 233.536 124.994 235.19 126.047 236.536C126.094 236.597 126.134 236.672 126.175 236.737C126.792 237.699 127.925 236.976 127.308 236.012C124.893 232.242 122.477 228.472 120.062 224.701C118.927 222.929 117.792 221.158 116.657 219.386C117.08 205.435 117.501 191.485 117.925 177.533C117.984 175.539 118.046 173.545 118.106 171.55C118.137 170.526 116.658 169.977 116.627 171.006C116.201 185.074 115.774 199.141 115.349 213.207C115.309 214.524 115.269 215.842 115.229 217.159C111.037 210.615 106.845 204.072 102.653 197.529C102.211 196.839 101.769 196.15 101.327 195.46C101.75 181.508 102.172 167.558 102.595 153.607C102.655 151.612 102.716 149.618 102.776 147.624C102.808 146.599 101.329 146.05 101.297 147.08C100.872 161.147 100.445 175.215 100.02 189.281C99.9796 190.597 99.9396 191.915 99.8997 193.232C95.2659 185.998 90.6308 178.765 85.997 171.532C86.4188 157.58 86.8406 143.629 87.2637 129.677Z" fill="#74FF74"/>
</g>
<path opacity="0.1" d="M86.5576 151.788C88.371 154.314 90.1531 156.92 91.8841 159.622C106.945 183.13 114.711 207.147 113.843 223.541C116.834 223.929 118.706 223.831 118.706 223.831C118.706 223.831 128.804 204.681 115.722 182.993C109.968 173.453 98.0754 161.825 86.5576 151.788Z" fill="#0046A0"/>
<path d="M475.986 350.454C475.986 354.236 472.891 357.33 469.11 357.33H108.677C104.895 357.33 101.801 354.235 101.801 350.454V117.326C101.801 113.543 104.896 110.448 108.677 110.448H469.11C472.892 110.448 475.986 113.543 475.986 117.326V350.454Z" fill="#4679EF"/>
<path d="M458.031 129.697H119.756V344.709H458.031V129.697Z" fill="#D0DBF7"/>
<path d="M77.4897 334.724V354.587C77.4897 358.861 80.9866 362.358 85.261 362.358H492.528C496.803 362.358 500.3 358.861 500.3 354.587V334.724H77.4897Z" fill="#4679EF"/>
<path d="M242.86 333.844V348.012C242.86 349.278 243.896 350.314 245.161 350.314H332.626C333.891 350.314 334.927 349.278 334.927 348.012V333.844H242.86Z" fill="#92A6F4"/>
<path d="M432.537 148.012H139.066V317.687H432.537V148.012Z" fill="white"/>
<path d="M432.537 148.012H139.066V164.362H432.537V148.012Z" fill="#E2E6FF"/>
<path d="M153.331 156.564C153.331 158.631 151.656 160.306 149.589 160.306C147.522 160.306 145.848 158.631 145.848 156.564C145.848 154.498 147.522 152.823 149.589 152.823C151.656 152.823 153.331 154.498 153.331 156.564Z" fill="#EB725F"/>
<path d="M165.929 156.564C165.929 158.631 164.254 160.306 162.188 160.306C160.121 160.306 158.446 158.631 158.446 156.564C158.446 154.498 160.121 152.823 162.188 152.823C164.254 152.823 165.929 154.498 165.929 156.564Z" fill="#F9AB43"/>
<path d="M178.528 156.564C178.528 158.631 176.853 160.306 174.786 160.306C172.72 160.306 171.045 158.631 171.045 156.564C171.045 154.498 172.72 152.823 174.786 152.823C176.853 152.823 178.528 154.498 178.528 156.564Z" fill="#4679EF"/>
<path d="M281.296 250.22C281.296 245.519 283.163 241.854 286.895 239.227L288.693 237.984C290.399 236.878 291.585 235.968 292.253 235.253C292.921 234.539 293.257 233.652 293.257 232.591C293.257 229.918 291.019 228.581 286.549 228.581C284.474 228.581 282.332 228.858 280.119 229.411C277.907 229.963 275.809 230.749 273.828 231.761V221.114C278.067 219.179 282.816 218.211 288.07 218.211C293.738 218.211 298.234 219.398 301.551 221.772C304.87 224.146 306.529 227.429 306.529 231.622C306.529 233.974 306 235.874 304.94 237.326C303.879 238.777 302.081 240.402 299.548 242.199C297.842 243.445 296.597 244.401 295.814 245.07C295.03 245.739 294.442 246.486 294.051 247.316C293.66 248.146 293.464 249.161 293.464 250.357V251.672H281.296V250.22ZM282.713 266.777C281.49 265.557 280.88 264.047 280.88 262.248C280.88 260.405 281.49 258.884 282.713 257.686C283.933 256.488 285.468 255.889 287.31 255.889C289.108 255.889 290.641 256.499 291.907 257.721C293.174 258.944 293.808 260.451 293.808 262.25C293.808 264.047 293.173 265.557 291.907 266.779C290.639 267.999 289.107 268.611 287.31 268.611C285.468 268.609 283.934 267.999 282.713 266.777Z" fill="#D0DBF7"/>
<path d="M288.893 300.522C256.415 300.522 229.993 274.099 229.993 241.622C229.993 209.144 256.415 182.722 288.893 182.722C321.371 182.722 347.793 209.145 347.793 241.622C347.793 274.099 321.371 300.522 288.893 300.522ZM288.893 186.343C258.412 186.343 233.614 211.14 233.614 241.62C233.614 272.101 258.412 296.899 288.893 296.899C319.373 296.899 344.171 272.101 344.171 241.62C344.171 211.14 319.373 186.343 288.893 186.343Z" fill="#D0DBF7"/>
<path d="M553.072 225.887C553.072 229.424 550.178 232.319 546.64 232.319H370.743C367.205 232.319 364.311 229.425 364.311 225.887V191.083C364.311 187.546 367.205 184.65 370.743 184.65H546.64C550.177 184.65 553.072 187.545 553.072 191.083V225.887Z" fill="#EB725F"/>
<path d="M422.135 191.021H419.562V225.948H422.135V191.021Z" fill="#FDFDFD"/>
<path d="M406.407 215.414L397.628 210.962C398.248 209.181 398.278 207.259 397.683 205.436C396.963 203.236 395.429 201.446 393.363 200.399C391.298 199.352 388.949 199.171 386.748 199.891C384.547 200.611 382.758 202.145 381.711 204.209C380.662 206.274 380.483 208.624 381.203 210.825C381.923 213.026 383.457 214.814 385.522 215.862C387.588 216.909 389.936 217.09 392.138 216.369C393.96 215.773 395.494 214.612 396.563 213.061L405.343 217.513L406.407 215.414ZM386.587 213.761C385.083 212.999 383.965 211.696 383.44 210.092C382.916 208.49 383.047 206.777 383.81 205.274C384.572 203.77 385.875 202.653 387.479 202.127C389.083 201.603 390.794 201.734 392.297 202.497C393.801 203.259 394.92 204.562 395.444 206.166C395.968 207.77 395.837 209.481 395.073 210.986C394.311 212.489 393.008 213.606 391.404 214.132C389.803 214.656 388.092 214.525 386.587 213.761Z" fill="white"/>
<path d="M385.688 205.698L386.947 206.337C387.587 205.075 389.135 204.568 390.397 205.209L391.036 203.949C389.079 202.957 386.68 203.741 385.688 205.698Z" fill="white"/>
<path d="M204.361 236.815H31.1465V347.006H204.361V236.815Z" fill="#F5F9FF"/>
<path d="M204.361 236.815H31.1465V250.558H204.361V236.815Z" fill="#E2E6FF"/>
<path d="M39.9921 247.15C41.729 247.15 43.1371 245.742 43.1371 244.005C43.1371 242.268 41.729 240.86 39.9921 240.86C38.2552 240.86 36.8472 242.268 36.8472 244.005C36.8472 245.742 38.2552 247.15 39.9921 247.15Z" fill="#EB725F"/>
<path d="M53.7274 244.005C53.7274 245.743 52.3197 247.15 50.5825 247.15C48.8452 247.15 47.4375 245.743 47.4375 244.005C47.4375 242.268 48.8452 240.86 50.5825 240.86C52.3197 240.86 53.7274 242.268 53.7274 244.005Z" fill="#F93C65"/>
<path d="M61.1733 247.15C62.9102 247.15 64.3182 245.742 64.3182 244.005C64.3182 242.268 62.9102 240.86 61.1733 240.86C59.4364 240.86 58.0283 242.268 58.0283 244.005C58.0283 245.742 59.4364 247.15 61.1733 247.15Z" fill="#4679EF"/>
<path d="M56.6646 297.276C59.2105 294.204 61.7551 291.801 64.3011 289.608C66.8457 287.382 69.3917 285.52 71.9376 283.752C77.0282 280.308 82.1188 277.629 87.2093 275.578C97.3905 271.45 107.572 269.665 117.754 269.619C127.935 269.609 138.118 271.385 148.299 275.5C153.39 277.545 158.48 280.235 163.571 283.683C166.115 285.461 168.661 287.33 171.207 289.566C173.752 291.767 176.298 294.184 178.844 297.276C176.298 300.369 173.753 302.785 171.207 304.986C168.661 307.224 166.117 309.091 163.571 310.869C158.48 314.318 153.39 317.007 148.299 319.052C138.118 323.167 127.935 324.943 117.754 324.933C107.573 324.887 97.3918 323.102 87.2093 318.974C82.1188 316.923 77.0282 314.244 71.9376 310.801C69.3929 309.034 66.847 307.17 64.3011 304.944C61.7551 302.751 59.2105 300.35 56.6646 297.276Z" fill="#FDFDFD"/>
<path d="M132.613 298.825C124.548 298.825 118.01 292.287 118.01 284.222C118.01 280.978 119.081 277.993 120.869 275.57C119.848 275.424 118.814 275.324 117.753 275.324C105.629 275.324 95.7993 285.153 95.7993 297.277C95.7993 309.402 105.629 319.231 117.753 319.231C129.877 319.231 139.706 309.402 139.706 297.277C139.706 297.181 139.694 297.088 139.691 296.99C137.595 298.156 135.184 298.825 132.613 298.825Z" fill="#EB725F"/>
<path d="M56.6646 297.276C60.2226 292.743 64.482 288.771 68.9998 285.138C73.565 281.559 78.4546 278.334 83.6788 275.686C88.8729 272.975 94.4265 270.925 100.137 269.424C105.864 267.974 111.785 267.247 117.715 267.174C119.198 267.219 120.684 267.178 122.162 267.31L126.591 267.718C129.513 268.198 132.462 268.576 135.306 269.405C138.195 270.061 140.949 271.143 143.74 272.078L147.795 273.816L149.8 274.723L151.737 275.766C162.121 281.212 171.255 288.645 178.842 297.275C169.755 290.244 160.204 283.996 149.96 279.471L148.048 278.611L146.082 277.89L142.174 276.42C139.501 275.658 136.874 274.745 134.144 274.255C131.457 273.58 128.714 273.23 125.985 272.83L121.86 272.511C120.486 272.401 119.103 272.476 117.727 272.438C106.693 272.406 95.7057 274.998 85.4197 279.391C80.2817 281.611 75.2822 284.236 70.4849 287.238C65.6601 290.211 61.0475 293.562 56.6646 297.276Z" fill="#4679EF"/>
<path d="M150.793 259.69L79.5947 330.888L82.1353 333.428L153.333 262.23L150.793 259.69Z" fill="#4679EF"/>
<path d="M390.937 0H217.722V110.191H390.937V0Z" fill="#F5F9FF"/>
<path d="M390.937 0H217.722V13.743H390.937V0Z" fill="#E2E6FF"/>
<path d="M226.568 10.3348C228.305 10.3348 229.713 8.92679 229.713 7.18988C229.713 5.45296 228.305 4.04492 226.568 4.04492C224.831 4.04492 223.423 5.45296 223.423 7.18988C223.423 8.92679 224.831 10.3348 226.568 10.3348Z" fill="#C1D1F4"/>
<path d="M240.303 7.18988C240.303 8.92709 238.895 10.3348 237.158 10.3348C235.421 10.3348 234.013 8.92709 234.013 7.18988C234.013 5.45266 235.421 4.04492 237.158 4.04492C238.895 4.04492 240.303 5.45266 240.303 7.18988Z" fill="#C1D1F4"/>
<path d="M247.749 10.3348C249.486 10.3348 250.894 8.92679 250.894 7.18988C250.894 5.45296 249.486 4.04492 247.749 4.04492C246.012 4.04492 244.604 5.45296 244.604 7.18988C244.604 8.92679 246.012 10.3348 247.749 10.3348Z" fill="#C1D1F4"/>
<path d="M375.501 25.7275H202.286V135.918H375.501V25.7275Z" fill="#F5F9FF"/>
<path d="M375.501 25.7275H202.286V39.4705H375.501V25.7275Z" fill="#E2E6FF"/>
<path d="M211.133 36.0609C212.87 36.0609 214.278 34.6529 214.278 32.916C214.278 31.179 212.87 29.771 211.133 29.771C209.396 29.771 207.988 31.179 207.988 32.916C207.988 34.6529 209.396 36.0609 211.133 36.0609Z" fill="#EB725F"/>
<path d="M224.868 32.916C224.868 34.6532 223.46 36.0609 221.723 36.0609C219.986 36.0609 218.578 34.6532 218.578 32.916C218.578 31.1787 219.986 29.771 221.723 29.771C223.459 29.771 224.868 31.1787 224.868 32.916Z" fill="#F9AB43"/>
<path d="M232.312 36.0609C234.049 36.0609 235.457 34.6529 235.457 32.916C235.457 31.179 234.049 29.771 232.312 29.771C230.576 29.771 229.167 31.179 229.167 32.916C229.167 34.6529 230.576 36.0609 232.312 36.0609Z" fill="#4679EF"/>
<path d="M320.24 118.89H257.868C254.351 118.89 251.573 117.484 250.246 115.034C248.92 112.585 249.26 109.49 251.184 106.546V106.544L281.564 60.0002C283.423 57.151 286.154 55.5161 289.054 55.5161C291.954 55.5161 294.685 57.151 296.545 59.9989L326.926 106.546C328.848 109.491 329.189 112.585 327.862 115.034C326.534 117.483 323.757 118.89 320.24 118.89ZM256.706 110.149C256.025 111.193 256.016 111.798 256.051 111.903C256.108 111.969 256.62 112.293 257.867 112.293H320.239C321.486 112.293 321.998 111.968 322.066 111.882C322.09 111.797 322.081 111.192 321.4 110.147L291.02 63.6019C290.409 62.6672 289.674 62.1093 289.053 62.1093C288.431 62.1093 287.696 62.6672 287.085 63.6032L256.706 110.149Z" fill="#EB725F"/>
<path d="M287.142 106.269C286.639 105.765 286.387 105.143 286.387 104.403C286.387 103.663 286.639 103.04 287.142 102.537C287.646 102.033 288.268 101.781 289.008 101.781C289.749 101.781 290.378 102.033 290.897 102.537C291.414 103.041 291.675 103.663 291.675 104.403C291.675 105.144 291.414 105.766 290.897 106.269C290.378 106.772 289.749 107.024 289.008 107.024C288.268 107.024 287.646 106.772 287.142 106.269ZM285.587 75.2983H292.518L291.23 97.4703H286.875L285.587 75.2983Z" fill="#EB725F"/>
<path d="M479.02 20.3197C471.92 13.4645 462.376 9.66054 452.523 9.59814C442.329 9.66304 432.424 13.744 425.285 21.0573C418.052 28.4642 414.039 38.7402 414.446 49.0974C414.707 55.743 416.711 62.2238 420.22 67.861C418.939 72.853 417.658 77.845 416.376 82.837C415.761 85.2357 417.939 87.401 420.333 86.7932C425.929 85.3717 431.525 83.9515 437.121 82.53C445.902 86.2952 455.889 86.923 464.972 83.7243C473.084 80.8677 480.048 75.379 484.693 68.1343C494.318 53.1209 491.818 32.6762 479.02 20.3197ZM483.267 55.3586C480.919 64.7248 474.373 72.4824 465.644 76.5571C461.205 78.63 456.242 79.5149 451.365 79.3589C448.174 79.2565 445.048 78.6413 442.03 77.6042C440.038 76.919 438.248 75.656 436.098 76.1515C432.033 77.0875 427.99 78.152 423.948 79.2104C424.389 77.4943 424.829 75.7796 425.268 74.0636C425.73 72.2627 426.232 70.4656 426.656 68.6548C426.896 67.6351 426.977 66.7029 426.453 65.707C425.474 63.8487 424.245 62.1789 423.401 60.2332C417.773 47.2391 421.788 31.9798 432.603 23.0541C438.175 18.4552 445.34 16.074 452.522 16.0291C462.252 16.0902 471.577 20.5531 477.567 28.2732C483.468 35.8773 485.605 46.026 483.267 55.3586Z" fill="#4679EF"/>
<path d="M452.48 26.3848C440.725 26.3848 431.163 35.9482 431.163 47.7018C431.163 59.4568 440.725 69.0202 452.48 69.0202C464.235 69.0202 473.797 59.4568 473.797 47.7018C473.797 35.9482 464.235 26.3848 452.48 26.3848ZM437.443 47.7031C437.443 39.4126 444.188 32.666 452.48 32.666C455.419 32.666 458.218 33.4996 460.652 35.0896L439.866 55.875C438.276 53.4427 437.443 50.6434 437.443 47.7031ZM452.48 62.7402C449.539 62.7402 446.74 61.9066 444.307 60.3166L465.093 39.53C466.682 41.9636 467.516 44.7616 467.516 47.7031C467.517 55.9936 460.771 62.7402 452.48 62.7402Z" fill="#CFD6F9"/>
<path d="M548.828 143.592C547.549 142.039 546.306 140.905 545.368 140.095C544.163 139.035 542.955 138.161 541.928 137.443C539.714 135.945 537.405 134.708 535.066 133.768C530.726 132.013 526.117 131.124 521.331 131.124C516.487 131.146 511.999 132.021 507.611 133.8C505.258 134.749 502.944 135.987 500.734 137.483C499.727 138.182 498.533 139.041 497.318 140.103C496.372 140.918 495.124 142.05 493.85 143.589L493.052 144.552L493.85 145.515C495.124 147.054 496.369 148.182 497.309 148.992C498.535 150.064 499.733 150.926 500.747 151.631C502.948 153.12 505.255 154.354 507.608 155.301C511.998 157.081 516.488 157.957 521.337 157.979H521.374C526.118 157.979 530.724 157.089 535.064 155.336C537.407 154.395 539.721 153.154 541.948 151.646C542.964 150.936 544.164 150.067 545.361 149.015C546.303 148.199 547.55 147.064 548.829 145.51L549.619 144.55L548.828 143.592ZM543.373 146.782C542.277 147.741 541.168 148.538 540.233 149.19C538.197 150.561 536.077 151.692 533.933 152.549C529.897 154.172 525.79 154.962 521.344 154.962C516.892 154.942 512.769 154.142 508.74 152.515C506.584 151.652 504.469 150.525 502.455 149.171C501.517 148.523 500.409 147.731 499.289 146.756C498.67 146.226 497.867 145.513 497.022 144.607C497.871 143.697 498.676 142.983 499.297 142.45C500.408 141.484 501.511 140.696 502.44 140.053C504.463 138.691 506.583 137.562 508.742 136.696C512.771 135.071 516.89 134.271 521.374 134.251C525.789 134.251 529.897 135.04 533.935 136.663C536.078 137.52 538.192 138.646 540.214 140.009C541.16 140.667 542.276 141.469 543.382 142.437C544.001 142.968 544.803 143.686 545.657 144.606C544.804 145.525 543.997 146.244 543.373 146.782Z" fill="#F93C65"/>
<path d="M529.776 142.696L528.252 143.543C527.677 143.862 527.024 144.032 526.364 144.032C524.216 144.032 522.468 142.283 522.468 140.136C522.468 139.302 522.732 138.504 523.231 137.828L524.27 136.421L522.539 136.176C522.089 136.112 521.708 136.082 521.337 136.082C516.667 136.082 512.867 139.882 512.867 144.553C512.867 149.225 516.667 153.024 521.337 153.024C526.008 153.024 529.807 149.223 529.807 144.553C529.807 144.511 529.805 144.469 529.802 144.44L529.776 142.696Z" fill="#F93C65"/>
<path d="M537.552 126.726L503.501 160.777L505.105 162.382L539.157 128.33L537.552 126.726Z" fill="#EB725F"/>
<path d="M107.51 78.8189C106.33 78.8189 105.245 79.0411 104.382 79.4092C104.038 77.3138 103.218 75.3844 102.029 73.7308C102.903 73.3814 103.826 72.7823 104.664 71.9449C106.654 69.9556 107.384 67.4596 106.297 66.3726C105.209 65.2844 102.714 66.0157 100.725 68.0063C99.8875 68.8437 99.2897 69.7672 98.939 70.6408C97.2854 69.4514 95.356 68.6315 93.2606 68.2883C93.6288 67.4247 93.8509 66.3402 93.8509 65.1596C93.8509 62.3453 92.6042 60.064 91.0654 60.064C89.5266 60.064 88.2798 62.3453 88.2798 65.1596C88.2798 66.3402 88.502 67.4247 88.8701 68.2883C86.7748 68.6315 84.8454 69.4514 83.1918 70.6408C82.8423 69.7672 82.2433 68.8437 81.4059 68.0063C79.4166 66.0169 76.9206 65.2856 75.8335 66.3726C74.7453 67.4609 75.4766 69.9556 77.4672 71.9449C78.3046 72.7823 79.2281 73.3801 80.1017 73.7308C78.9124 75.3844 78.0924 77.3138 77.7492 79.4092C76.8856 79.0411 75.8011 78.8189 74.6205 78.8189C71.8062 78.8189 69.5249 80.0657 69.5249 81.6045C69.5249 83.1432 71.8062 84.39 74.6205 84.39C75.8011 84.39 76.8856 84.1679 77.7492 83.7997C78.0924 85.8951 78.9124 87.8245 80.1017 89.4781C79.2281 89.8275 78.3046 90.4266 77.4672 91.264C75.4766 93.2533 74.7465 95.7493 75.8335 96.8375C76.9218 97.9258 79.4166 97.1945 81.4059 95.2039C82.2433 94.3665 82.8411 93.443 83.1918 92.5694C84.8454 93.7587 86.7748 94.5787 88.8701 94.9219C88.502 95.7855 88.2798 96.87 88.2798 98.0506C88.2798 100.865 89.5266 103.146 91.0654 103.146C92.6042 103.146 93.8509 100.865 93.8509 98.0506C93.8509 96.87 93.6288 95.7855 93.2606 94.9219C95.356 94.5787 97.2854 93.7587 98.939 92.5694C99.2885 93.443 99.8875 94.3665 100.725 95.2039C102.714 97.1945 105.21 97.9245 106.297 96.8375C107.385 95.7493 106.654 93.2545 104.664 91.264C103.826 90.4266 102.903 89.8288 102.029 89.4781C103.218 87.8245 104.038 85.8951 104.382 83.7997C105.245 84.1679 106.33 84.39 107.51 84.39C110.325 84.39 112.606 83.1432 112.606 81.6045C112.606 80.0657 110.325 78.8189 107.51 78.8189ZM91.0641 90.4865C86.1595 90.4865 82.1821 86.5103 82.1821 81.6045C82.1821 76.6998 86.1583 72.7224 91.0641 72.7224C95.97 72.7224 99.9461 76.6986 99.9461 81.6045C99.9461 86.5103 95.9688 90.4865 91.0641 90.4865Z" fill="#4679EF"/>
<path d="M151.606 48.8307C150.014 48.1904 148.435 47.9009 147.07 47.9296C147.743 44.9219 147.686 41.8768 146.979 39.0051C148.346 39.0076 149.915 38.7019 151.496 38.028C155.255 36.4268 157.592 33.4615 156.716 31.4061C155.84 29.3506 152.084 28.9837 148.325 30.5849C146.742 31.2588 145.437 32.1786 144.492 33.1658C142.91 30.6673 140.754 28.517 138.119 26.9195C139.083 25.9561 139.969 24.6157 140.61 23.0245C142.135 19.2343 141.692 15.4853 139.619 14.6504C137.546 13.8168 134.629 16.2129 133.104 20.0043C132.464 21.5955 132.176 23.1755 132.203 24.5396C129.195 23.8657 126.15 23.9243 123.279 24.6307C123.281 23.2641 122.975 21.6954 122.301 20.1142C120.699 16.3552 117.735 14.0177 115.68 14.8938C113.624 15.7699 113.257 19.5264 114.858 23.2853C115.532 24.8678 116.452 26.1732 117.439 27.1179C114.941 28.7004 112.79 30.8557 111.193 33.4915C110.229 32.5268 108.889 31.6407 107.298 31.0005C103.508 29.4754 99.7575 29.9185 98.9239 31.9914C98.0902 34.0643 100.486 36.9809 104.278 38.506C105.869 39.1462 107.449 39.4357 108.813 39.407C108.14 42.4147 108.198 45.4598 108.904 48.3315C107.538 48.329 105.969 48.6347 104.388 49.3086C100.629 50.9098 98.2911 53.8751 99.1672 55.9305C100.043 57.986 103.8 58.3529 107.56 56.7517C109.142 56.0778 110.448 55.158 111.393 54.1708C112.975 56.6693 115.13 58.8196 117.766 60.4171C116.801 61.3818 115.915 62.7209 115.275 64.3121C113.75 68.1035 114.193 71.8525 116.266 72.6862C118.339 73.5198 121.256 71.1237 122.781 67.3322C123.421 65.7411 123.71 64.1611 123.682 62.797C126.689 63.4709 129.733 63.4123 132.605 62.7059C132.602 64.0725 132.908 65.6412 133.582 67.2224C135.185 70.9814 138.149 73.3189 140.204 72.4428C142.259 71.5667 142.626 67.8102 141.025 64.05C140.351 62.4675 139.431 61.1621 138.444 60.2174C140.943 58.6349 143.093 56.4796 144.691 53.8439C145.654 54.8086 146.994 55.6947 148.586 56.3349C152.376 57.8599 156.126 57.4169 156.96 55.344C157.793 53.2723 155.397 50.3557 151.606 48.8307ZM123.129 55.6322C116.521 52.974 113.321 45.461 115.979 38.8541C118.639 32.246 126.15 29.0461 132.757 31.7043C139.364 34.3626 142.565 41.8755 139.907 48.4824C137.249 55.0906 129.736 58.2917 123.129 55.6322Z" fill="#4679EF"/>
<path d="M399.678 86.384C399.678 87.8067 398.525 88.9611 397.101 88.9611C395.679 88.9611 394.525 87.808 394.525 86.384C394.525 84.96 395.679 83.8081 397.101 83.8081C398.525 83.8081 399.678 84.9613 399.678 86.384Z" fill="#EEF1FF"/>
<path d="M352.183 359.788C351.081 361.476 351.067 362.454 351.125 362.625C351.217 362.731 352.044 363.255 354.06 363.255H454.871C456.885 363.255 457.713 362.731 457.824 362.593C457.862 362.457 457.847 361.477 456.747 359.79L407.645 284.56C406.659 283.049 405.47 282.146 404.465 282.146C403.461 282.146 402.271 283.049 401.285 284.56L352.183 359.788Z" fill="#FDFDFD"/>
<path d="M454.87 373.916H354.059C348.374 373.916 343.885 371.644 341.74 367.684C339.596 363.724 340.147 358.724 343.253 353.964L392.356 278.734C395.362 274.129 399.775 271.487 404.463 271.487C409.15 271.487 413.563 274.129 416.568 278.733L465.672 353.964C468.779 358.724 469.33 363.724 467.186 367.684C465.043 371.644 460.554 373.916 454.87 373.916ZM352.183 359.788C351.081 361.476 351.067 362.454 351.125 362.625C351.217 362.731 352.044 363.255 354.06 363.255H454.871C456.885 363.255 457.713 362.731 457.824 362.593C457.862 362.456 457.847 361.477 456.747 359.79L407.645 284.56C406.659 283.049 405.47 282.146 404.465 282.146C403.461 282.146 402.271 283.049 401.285 284.56L352.183 359.788Z" fill="#EB725F"/>
<path d="M401.376 353.517C400.563 352.703 400.156 351.697 400.156 350.501C400.156 349.304 400.563 348.299 401.376 347.485C402.19 346.672 403.195 346.264 404.392 346.264C405.589 346.264 406.606 346.672 407.446 347.485C408.281 348.299 408.703 349.305 408.703 350.501C408.703 351.697 408.282 352.703 407.446 353.517C406.606 354.331 405.59 354.738 404.392 354.738C403.195 354.738 402.19 354.331 401.376 353.517ZM398.863 303.461H410.067L407.985 339.297H400.945L398.863 303.461Z" fill="#EB725F"/>
</svg>
