<svg width="435" height="420" viewBox="0 0 435 420" fill="none" xmlns="http://www.w3.org/2000/svg">
<path d="M382.948 360.922C374.054 369.96 365.638 375.787 358.989 380.392C280.828 434.516 188.343 418.74 168.687 414.887C139.662 409.197 83.5568 398.199 42.9937 352.162C-18.3747 282.512 -8.81876 172.78 38.7828 100.344C47.4898 87.0945 93.4832 13.5556 186.964 1.76228C243.538 -5.37496 309.485 9.01995 357.242 47.6348C457.488 128.691 450.351 292.439 382.948 360.922Z" fill="url(#paint0_linear_234_12297)"/>
<path d="M217.701 279.13L209.79 347.609H301.577L289.621 279.13H217.701Z" fill="url(#paint1_linear_234_12297)"/>
<path d="M57.9834 105.519V266.902C57.9834 280.178 68.9452 291.035 82.6964 291.377C143.772 292.897 357.386 296.583 415.526 295.755C425.518 295.613 433.614 287.896 433.902 278.255C435.023 240.763 436.844 150.609 430.106 108.753C428.687 99.9393 420.978 93.3481 411.74 93.0629C360.566 91.4829 134.122 86.4661 76.0087 87.7257C65.9864 87.9429 57.9834 95.844 57.9834 105.519Z" fill="url(#paint2_linear_234_12297)"/>
<path d="M68.4756 104.734V258.059C68.4756 265.81 74.9226 272.126 82.9531 272.242L407.161 276.108C415.123 276.223 421.649 270.04 421.679 262.356L422.221 110.401C422.242 104.906 417.706 100.404 412.015 100.27L80.0857 93.7982C73.7198 93.6486 68.4756 98.5882 68.4756 104.734Z" fill="url(#paint3_linear_234_12297)"/>
<path d="M424.12 282.461C424.117 282.461 424.114 282.461 424.111 282.461L68.4673 276.613C68.1796 276.608 67.9503 276.379 67.9552 276.101C67.9598 275.823 68.1944 275.604 68.4849 275.606L424.129 281.455C424.417 281.46 424.646 281.689 424.641 281.966C424.636 282.241 424.404 282.461 424.12 282.461Z" fill="#7D97F4"/>
<path d="M321.347 361.619H187.011C183.361 361.619 180.62 359.111 181.326 356.418L183.05 349.839C183.568 347.86 185.824 346.407 188.503 346.327L318.008 342.426C320.807 342.342 323.285 343.776 323.895 345.832L327.002 356.312C327.81 359.034 325.056 361.619 321.347 361.619Z" fill="url(#paint4_linear_234_12297)"/>
<path d="M68.4756 104.734V258.059C68.4756 265.81 74.9226 272.126 82.9531 272.242L407.161 276.108C415.123 276.223 421.649 270.04 421.679 262.356L422.221 110.401C422.242 104.906 417.706 100.404 412.015 100.27L80.0857 93.7982C73.7198 93.6486 68.4756 98.5882 68.4756 104.734Z" fill="#91B3FA"/>
<path d="M422.158 128.174L422.221 110.367C422.243 104.872 417.707 100.387 412.015 100.253L80.1708 93.7894C73.8048 93.64 68.6455 98.588 68.6455 104.734V128.174L422.158 128.174Z" fill="url(#paint5_linear_234_12297)"/>
<path d="M93.5209 115.508C94.0033 113.536 92.7383 111.561 90.6956 111.095C88.6528 110.63 86.6057 111.85 86.1234 113.822C85.641 115.793 86.906 117.769 88.9488 118.235C90.9916 118.7 93.0386 117.479 93.5209 115.508Z" fill="#91B3FA"/>
<path d="M106.689 115.508C107.171 113.537 105.906 111.561 103.864 111.096C101.821 110.63 99.7737 111.851 99.2914 113.822C98.809 115.794 100.074 117.769 102.117 118.235C104.16 118.701 106.207 117.48 106.689 115.508Z" fill="#91B3FA"/>
<path d="M119.51 115.238C119.846 113.238 118.439 111.354 116.367 111.029C114.295 110.705 112.343 112.063 112.007 114.062C111.671 116.062 113.078 117.946 115.15 118.271C117.222 118.595 119.174 117.237 119.51 115.238Z" fill="#91B3FA"/>
<path d="M402.462 267.724L90.821 263.388C86.0843 263.323 82.2803 259.598 82.2803 255.026V224.924C82.2803 220.669 85.8802 217.234 90.2878 217.283L402.661 220.711C406.247 220.75 409.133 223.567 409.133 227.029V261.378C409.134 264.919 406.131 267.775 402.462 267.724Z" fill="#BDD0FB"/>
<path d="M290.266 213.52L91.0517 210.754C86.1871 210.687 82.2803 206.862 82.2803 202.166V142.646C82.2803 139.285 85.1037 136.56 88.5864 136.56H288.94C292.939 136.56 296.181 139.689 296.181 143.548V207.894C296.181 211.033 293.519 213.565 290.266 213.52Z" fill="#BDD0FB"/>
<path d="M402.554 213.602H307.646C304.294 213.602 301.577 210.98 301.577 207.745V143.857C301.577 139.827 304.962 136.56 309.137 136.56H404.572C407.091 136.56 409.134 138.531 409.134 140.962V207.253C409.134 210.76 406.188 213.602 402.554 213.602Z" fill="#BDD0FB"/>
<path d="M20.7633 356.259C20.7633 358.697 22.832 360.691 25.3605 360.691H273.958C276.486 360.691 278.555 358.697 278.555 356.259L280.623 218.381C280.623 215.943 277.647 211.184 272.193 211.542L29.2366 205.474C26.0641 205.395 22.9966 206.574 20.7502 208.735C18.5036 210.896 17.2745 213.851 17.3494 216.91L20.7633 356.259Z" fill="url(#paint6_linear_234_12297)"/>
<path d="M25.3018 352.007C25.3018 354.315 27.2589 356.204 29.6511 356.204H267.962C270.354 356.204 272.312 354.316 272.312 352.007L274.264 226.84C274.034 219.308 267.191 216.601 263.044 216.761L30.1921 210.732C27.9633 210.674 25.8084 211.503 24.2299 213.022C22.6513 214.542 21.7831 216.622 21.839 218.773L25.3018 352.007Z" fill="#91B3FA"/>
<path d="M1.47927 372.137H292.799C293.285 372.137 293.682 371.754 293.682 371.285V360.875C293.682 360.406 293.285 360.022 292.799 360.022H1.47927C0.993527 360.022 0.596191 360.406 0.596191 360.875V371.285C0.596191 371.754 0.993527 372.137 1.47927 372.137Z" fill="url(#paint7_linear_234_12297)"/>
<path d="M274.07 239.462L274.264 226.92C274.034 219.388 267.192 216.641 263.044 216.801L30.1921 210.751C27.9633 210.694 25.8084 211.512 24.2297 213.032C22.6513 214.551 21.7831 216.707 21.839 218.858L22.3727 239.462H274.07Z" fill="url(#paint8_linear_234_12297)"/>
<path d="M269.737 292.544C269.737 292.544 269.73 292.544 269.727 292.544C269.375 292.539 269.094 292.26 269.099 291.919L269.253 281.769C269.258 281.432 269.543 281.163 269.89 281.163C269.893 281.163 269.897 281.163 269.897 281.163C270.252 281.167 270.533 281.447 270.528 281.787L270.374 291.938C270.368 292.274 270.084 292.544 269.737 292.544Z" fill="white"/>
<path d="M270.115 267.669C270.112 267.669 270.109 267.669 270.106 267.669C269.753 267.664 269.472 267.384 269.478 267.045L270.069 228.167C270.058 225.857 269.332 224.014 267.91 222.699C265.256 220.246 261.043 220.371 260.866 220.379L186.442 218.453C186.09 218.444 185.812 218.161 185.822 217.822C185.831 217.482 186.101 217.193 186.476 217.223L260.856 219.15C261.319 219.123 265.804 219.048 268.792 221.811C270.472 223.365 271.331 225.506 271.343 228.173L270.752 267.063C270.747 267.399 270.463 267.669 270.115 267.669Z" fill="#BDD0FB"/>
<path d="M168.797 303.228H38.2744C35.0284 303.228 32.397 300.688 32.397 297.556V251.25C32.397 248.117 35.0284 245.577 38.2744 245.577H168.797C172.043 245.577 174.674 248.117 174.674 251.25V297.556C174.674 300.688 172.043 303.228 168.797 303.228Z" fill="#BDD0FB"/>
<path d="M262.962 303.228H186.306C183.981 303.228 182.096 301.408 182.096 299.164V249.641C182.096 247.397 183.981 245.577 186.306 245.577H262.962C265.287 245.577 267.172 247.397 267.172 249.641V299.164C267.172 301.408 265.287 303.228 262.962 303.228Z" fill="#BDD0FB"/>
<path d="M261.997 350.746H37.5727C34.7143 350.746 32.397 348.51 32.397 345.751V316.608C32.397 313.85 34.7141 311.613 37.5727 311.613H261.997C264.856 311.613 267.173 313.85 267.173 316.608V345.751C267.173 348.51 264.855 350.746 261.997 350.746Z" fill="#BDD0FB"/>
<path d="M37.1912 225.166C37.4557 223.592 36.3487 222.11 34.7185 221.855C33.0882 221.599 31.5522 222.668 31.2876 224.241C31.0231 225.814 32.1301 227.297 33.7604 227.552C35.3906 227.808 36.9266 226.739 37.1912 225.166Z" fill="#91B3FA"/>
<path d="M46.3126 227.017C47.4804 225.89 47.4804 224.062 46.3126 222.935C45.1448 221.808 43.2515 221.808 42.0837 222.935C40.9159 224.062 40.9159 225.89 42.0837 227.017C43.2515 228.144 45.1448 228.144 46.3126 227.017Z" fill="#91B3FA"/>
<path d="M55.6159 227.552C56.7836 226.425 56.7836 224.598 55.6159 223.471C54.4481 222.343 52.5547 222.343 51.3869 223.471C50.2191 224.598 50.2191 226.425 51.3869 227.552C52.5547 228.679 54.4481 228.679 55.6159 227.552Z" fill="#91B3FA"/>
<path d="M265.078 175.339C287.744 175.339 306.118 157.379 306.118 135.223C306.118 113.068 287.744 95.1079 265.078 95.1079C242.412 95.1079 224.037 113.068 224.037 135.223C224.037 157.379 242.412 175.339 265.078 175.339Z" fill="white"/>
<path d="M263.632 156.839C261.853 156.839 260.198 155.928 259.278 154.431L243.838 129.31C242.393 126.959 243.172 123.908 245.577 122.496C247.981 121.084 251.103 121.844 252.548 124.195L263.266 141.633L277.434 114.431C278.707 111.987 281.767 111.015 284.267 112.259C286.767 113.503 287.762 116.493 286.489 118.937L268.16 154.126C267.322 155.735 265.656 156.773 263.811 156.836C263.751 156.838 263.692 156.839 263.632 156.839Z" fill="url(#paint9_linear_234_12297)"/>
<path d="M80.7871 329.283C103.453 329.283 121.828 311.323 121.828 289.168C121.828 267.013 103.453 249.052 80.7871 249.052C58.121 249.052 39.7466 267.013 39.7466 289.168C39.7466 311.323 58.121 329.283 80.7871 329.283Z" fill="white"/>
<path d="M79.3416 310.784C77.5626 310.784 75.9078 309.873 74.9874 308.375L59.5476 283.254C58.1025 280.903 58.881 277.853 61.2865 276.441C63.6906 275.028 66.812 275.789 68.2572 278.14L78.9751 295.578L93.1437 268.376C94.4166 265.932 97.4763 264.959 99.976 266.204C102.476 267.448 103.472 270.438 102.199 272.882L83.8697 308.071C83.0316 309.68 81.3657 310.718 79.5202 310.781C79.4607 310.783 79.4011 310.784 79.3416 310.784Z" fill="url(#paint10_linear_234_12297)"/>
<path d="M72.1799 98.2525C77.4724 88.3306 87.3165 81.3355 98.7505 80.086L99.5327 32.3116C99.5394 31.9036 99.1961 31.5674 98.7733 31.5718C66.5231 31.909 38.0661 51.2808 24.7853 79.9745C24.5921 80.3919 24.8057 80.8814 25.2485 81.0439L72.1799 98.2525Z" fill="url(#paint11_linear_234_12297)"/>
<path d="M135.907 121.141C135.245 121.124 134.652 121.531 134.454 122.141C133.901 123.849 132.889 127.126 132.723 127.541C131.916 129.557 130.972 131.523 129.866 133.403C127.815 136.888 125.191 140.083 121.954 142.613C113.751 149.024 101.958 150.215 92.122 147.042C91.8416 146.952 91.5637 146.854 91.2868 146.755C90.7744 146.57 90.1993 146.775 89.9363 147.238L65.1343 190.891C77.1778 196.719 88.5113 198.243 102.73 197.364C144.042 194.809 176.482 162.436 180.082 122.291L135.907 121.141Z" fill="url(#paint12_linear_234_12297)"/>
<path d="M135.906 121.141C133.217 137.071 121.019 149.519 104.442 150.062C99.7789 150.215 94.2147 149.169 90.1244 147.57C89.6978 147.403 89.209 147.572 88.9777 147.956L63.4844 190.281C75.5279 196.11 89.1278 198.963 103.347 198.084C144.658 195.529 177.098 162.173 180.699 122.027L135.906 121.141Z" fill="url(#paint13_linear_234_12297)"/>
<path d="M58.1707 183.598L82.8547 140.87C83.0294 140.567 82.9552 140.19 82.6807 139.966C75.0814 133.79 69.0061 125.509 69.0061 114.771C69.0061 112.122 67.7893 108.267 68.3467 105.782L21.9261 89.7622C19.3493 97.8518 17.958 106.462 17.958 115.383C17.958 144.223 33.8359 169.588 55.6368 184.168C56.4889 184.738 57.6658 184.472 58.1707 183.598Z" fill="url(#paint14_linear_234_12297)"/>
<path d="M55.7027 182.385L81.2826 140.185C81.6077 139.649 81.4958 138.965 81.0124 138.555C73.6747 132.326 69.0061 122.963 69.0061 112.4C69.0061 109.751 69.3026 107.169 69.86 104.684L22.6214 87.6419C22.2452 87.5061 21.826 87.7049 21.711 88.0764C19.272 95.9662 17.958 104.342 17.958 113.012C17.9582 142.554 33.0823 167.991 55.7027 182.385Z" fill="url(#paint15_linear_234_12297)"/>
<path d="M107.8 80.3128C122.442 82.6763 133.797 94.5752 135.72 109.444C135.823 110.24 136.503 110.848 137.333 110.874L208.15 113.165C208.37 112.959 208.486 112.85 208.707 112.644C208.49 55.4686 166.01 6.48428 109.108 0.000488281L107.8 80.3128Z" fill="url(#paint16_linear_234_12297)"/>
<path d="M378.06 146.603C378.526 144.69 375.738 143.419 374.031 144.755C356.696 158.321 315.045 198.947 325.425 269.943C338.449 359.018 316.183 391.521 288.469 411.347C288.469 411.347 326.53 402.024 350.477 369.043C409.271 288.066 369.782 180.61 378.06 146.603Z" fill="url(#paint17_linear_234_12297)"/>
<path d="M364.868 174.425C362.699 184.341 360.767 194.287 359.273 204.279C357.717 214.262 356.524 224.28 355.708 234.314C354.938 244.35 354.394 254.397 354.363 264.448C354.278 274.498 354.711 284.54 355.188 294.621C355.597 304.699 356.078 314.849 355.314 325.072C354.562 335.273 352.337 345.563 347.922 355.21C346.818 357.614 345.658 360.011 344.339 362.327C343.072 364.664 341.68 366.955 340.239 369.224C337.33 373.752 334.055 378.127 330.406 382.279C323.081 390.569 314.246 397.924 304.514 404.148C303.49 404.803 302.022 404.642 301.236 403.788C300.464 402.95 300.637 401.755 301.613 401.092L301.62 401.088C303.936 399.518 306.227 397.928 308.425 396.259C309.541 395.438 310.61 394.579 311.698 393.736C312.747 392.86 313.837 392.018 314.852 391.116C318.985 387.566 322.813 383.778 326.287 379.774C333.273 371.802 338.867 362.918 343.104 353.709C345.161 349.083 346.805 344.339 348.006 339.505C349.202 334.671 349.954 329.752 350.37 324.794C351.204 314.873 350.827 304.823 350.505 294.743C350.198 284.661 349.973 274.528 350.249 264.403C350.37 259.341 350.601 254.281 350.94 249.227C351.092 246.7 351.303 244.175 351.508 241.65C351.743 239.127 351.994 236.606 352.269 234.086C353.395 224.01 354.889 213.968 356.761 203.979C358.69 193.997 360.937 184.061 363.64 174.214C363.717 173.933 364.053 173.757 364.391 173.821C364.719 173.884 364.927 174.152 364.868 174.425Z" fill="#7D97F4"/>
<path d="M332.488 388.381C334.779 390.728 338.809 390.053 340.187 387.116C347.793 370.91 365.004 323.215 336.579 268.267C312.575 221.866 304.129 194.504 301.186 181.826C300.563 179.146 296.757 178.79 295.608 181.303C282.931 209.035 249.458 303.361 332.488 388.381Z" fill="#7D97F4"/>
<path d="M336.65 386.671C336.732 386.686 336.816 386.692 336.902 386.691C337.622 386.68 338.197 386.108 338.186 385.413C338.173 384.625 336.584 305.856 306.228 239.883C305.936 239.248 305.166 238.962 304.507 239.244C303.848 239.526 303.552 240.27 303.844 240.905C333.979 306.397 335.565 384.669 335.577 385.452C335.587 386.064 336.048 386.567 336.65 386.671Z" fill="#91B3FA"/>
<path d="M231.243 269.24C230.713 293.394 228.993 376.709 229.814 406.234C229.901 409.361 232.122 411.872 234.892 411.974C248.594 412.481 298.823 413.764 321.234 412.702C325.902 412.481 329.614 408.212 329.711 402.938C330.177 377.586 331.204 306.279 328.762 273.613C328.47 269.7 325.749 266.583 322.287 266.192C307.366 264.506 256.92 260.387 237.558 261.805C234.066 262.061 231.33 265.29 231.243 269.24Z" fill="url(#paint18_linear_234_12297)"/>
<path d="M237.357 276.65C236.62 296.145 234.293 361.003 235.032 384.986C235.14 388.491 237.586 391.326 240.688 391.531C253.457 392.374 297.023 394.235 315.752 392.541C319.125 392.236 321.771 389.157 321.953 385.343C322.902 365.453 325.627 305.062 324.92 281.347C324.807 277.564 322.211 274.475 318.872 274.136C305.058 272.736 258.764 269.404 242.849 270.384C239.861 270.568 237.485 273.275 237.357 276.65Z" fill="#91B3FA"/>
<path opacity="0.5" d="M265.105 266.025C265.105 266.766 265.617 267.378 266.272 267.416C269.509 267.608 278.625 268.149 282.7 268.416C283.503 268.469 284.133 267.654 283.981 266.761L283.955 266.609C283.851 266 283.404 265.542 282.857 265.486C280.103 265.201 271.793 264.411 266.287 264.633C265.626 264.659 265.105 265.278 265.105 266.025Z" fill="white"/>
<path d="M325.031 288.726C325.02 286.106 324.984 283.53 324.92 281.372C324.807 277.589 322.211 274.487 318.872 274.149C305.058 272.749 258.765 269.41 242.849 270.391C239.861 270.575 237.485 273.303 237.357 276.678C237.243 279.702 237.161 282.085 236.987 286.802L325.031 288.726Z" fill="url(#paint19_linear_234_12297)"/>
<path opacity="0.42" d="M280.384 330.278H244.379C242.25 330.278 240.525 328.563 240.525 326.448V295.936C240.525 294.002 242.126 292.448 244.071 292.495L280.41 293.358C282.409 293.405 284.004 295.029 284.004 297.016V326.68C284.004 328.667 282.383 330.278 280.384 330.278Z" fill="white"/>
<path opacity="0.42" d="M319.394 330.277H288.589C287.813 330.277 287.185 329.67 287.185 328.922V294.5C287.185 293.916 287.675 293.442 288.28 293.442H319.468C320.077 293.442 320.571 293.919 320.571 294.506V329.141C320.571 329.769 320.044 330.277 319.394 330.277Z" fill="white"/>
<path opacity="0.42" d="M319.441 360.177H240.483C239.792 360.177 239.231 359.637 239.231 358.97V336.088C239.231 335.547 239.686 335.108 240.247 335.108H319.39C320.042 335.108 320.571 335.618 320.571 336.247V359.086C320.571 359.689 320.065 360.177 319.441 360.177Z" fill="white"/>
<path opacity="0.42" d="M312.141 388.479L242.905 387.548C240.852 387.52 239.205 386.075 239.205 384.303V368.127C239.205 366.567 240.67 365.302 242.477 365.302H315.314C317.041 365.302 318.443 366.509 318.448 368.001L318.494 383.063C318.503 386.085 315.64 388.526 312.141 388.479Z" fill="white"/>
<path opacity="0.74" d="M245.519 282.958C246.766 282.46 247.358 281.08 246.841 279.877C246.325 278.673 244.895 278.102 243.648 278.6C242.401 279.099 241.809 280.478 242.326 281.682C242.842 282.885 244.272 283.457 245.519 282.958Z" fill="white"/>
<path opacity="0.74" d="M254.44 282.672C255.394 281.751 255.394 280.258 254.44 279.337C253.486 278.416 251.939 278.416 250.984 279.337C250.03 280.258 250.03 281.751 250.984 282.672C251.939 283.593 253.486 283.593 254.44 282.672Z" fill="white"/>
<path opacity="0.74" d="M261.268 283.621C262.515 283.123 263.107 281.743 262.59 280.54C262.074 279.336 260.644 278.765 259.397 279.263C258.15 279.762 257.558 281.142 258.075 282.345C258.591 283.548 260.021 284.12 261.268 283.621Z" fill="white"/>
<path d="M283.485 356.821C301.024 356.821 315.243 342.924 315.243 325.78C315.243 308.636 301.024 294.738 283.485 294.738C265.946 294.738 251.728 308.636 251.728 325.78C251.728 342.924 265.946 356.821 283.485 356.821Z" fill="white"/>
<path d="M282.366 342.506C280.99 342.506 279.709 341.801 278.997 340.642L267.05 321.203C265.932 319.384 266.534 317.023 268.395 315.93C270.256 314.838 272.671 315.426 273.789 317.245L282.083 330.739L293.047 309.69C294.032 307.799 296.399 307.046 298.334 308.009C300.269 308.972 301.039 311.286 300.054 313.177L285.871 340.406C285.222 341.651 283.933 342.454 282.505 342.503C282.459 342.505 282.413 342.506 282.366 342.506Z" fill="url(#paint20_linear_234_12297)"/>
<defs>
<linearGradient id="paint0_linear_234_12297" x1="489.478" y1="543.962" x2="118.8" y2="66.9606" gradientUnits="userSpaceOnUse">
<stop stop-color="#DAE3FE"/>
<stop offset="1" stop-color="#E9EFFD"/>
</linearGradient>
<linearGradient id="paint1_linear_234_12297" x1="257.507" y1="382.467" x2="253.07" y2="291.427" gradientUnits="userSpaceOnUse">
<stop stop-color="#09005D"/>
<stop offset="1" stop-color="#1A0F91"/>
</linearGradient>
<linearGradient id="paint2_linear_234_12297" x1="57.9834" y1="191.7" x2="435" y2="191.7" gradientUnits="userSpaceOnUse">
<stop stop-color="#09005D"/>
<stop offset="1" stop-color="#1A0F91"/>
</linearGradient>
<linearGradient id="paint3_linear_234_12297" x1="261.394" y1="-19.664" x2="234.576" y2="338.965" gradientUnits="userSpaceOnUse">
<stop stop-color="#53D8FF"/>
<stop offset="1" stop-color="#3840F7"/>
</linearGradient>
<linearGradient id="paint4_linear_234_12297" x1="257.804" y1="348.119" x2="216.499" y2="442.089" gradientUnits="userSpaceOnUse">
<stop stop-color="#09005D"/>
<stop offset="1" stop-color="#1A0F91"/>
</linearGradient>
<linearGradient id="paint5_linear_234_12297" x1="68.6455" y1="110.98" x2="422.221" y2="110.98" gradientUnits="userSpaceOnUse">
<stop stop-color="#4679EF"/>
<stop offset="1" stop-color="#4679EF"/>
</linearGradient>
<linearGradient id="paint6_linear_234_12297" x1="149.756" y1="206.115" x2="145.709" y2="399.339" gradientUnits="userSpaceOnUse">
<stop stop-color="#09005D"/>
<stop offset="1" stop-color="#1A0F91"/>
</linearGradient>
<linearGradient id="paint7_linear_234_12297" x1="150.947" y1="210.833" x2="147.99" y2="340.255" gradientUnits="userSpaceOnUse">
<stop stop-color="#09005D"/>
<stop offset="1" stop-color="#1A0F91"/>
</linearGradient>
<linearGradient id="paint8_linear_234_12297" x1="122.375" y1="532.921" x2="151.218" y2="164.86" gradientUnits="userSpaceOnUse">
<stop stop-color="#4679EF"/>
<stop offset="1" stop-color="#4679EF"/>
</linearGradient>
<linearGradient id="paint9_linear_234_12297" x1="265.077" y1="0.15383" x2="265.077" y2="77.3656" gradientUnits="userSpaceOnUse">
<stop stop-color="#59CB92"/>
<stop offset="1" stop-color="#59CB92"/>
</linearGradient>
<linearGradient id="paint10_linear_234_12297" x1="80.787" y1="0.153991" x2="80.787" y2="77.3658" gradientUnits="userSpaceOnUse">
<stop stop-color="#59CB92"/>
<stop offset="1" stop-color="#59CB92"/>
</linearGradient>
<linearGradient id="paint11_linear_234_12297" x1="128.774" y1="-39.1936" x2="26.4319" y2="155.861" gradientUnits="userSpaceOnUse">
<stop stop-color="#59CB92"/>
<stop offset="1" stop-color="#D3F1E2"/>
</linearGradient>
<linearGradient id="paint12_linear_234_12297" x1="101.501" y1="106.034" x2="121.533" y2="157.547" gradientUnits="userSpaceOnUse">
<stop stop-color="#59CB92"/>
<stop offset="1" stop-color="#D3F1E2"/>
</linearGradient>
<linearGradient id="paint13_linear_234_12297" x1="211.82" y1="4.37968" x2="109.478" y2="199.435" gradientUnits="userSpaceOnUse">
<stop stop-color="#59CB92"/>
<stop offset="1" stop-color="#D3F1E2"/>
</linearGradient>
<linearGradient id="paint14_linear_234_12297" x1="155.365" y1="250.945" x2="106.118" y2="192.066" gradientUnits="userSpaceOnUse">
<stop stop-color="#59CB92"/>
<stop offset="1" stop-color="#D3F1E2"/>
</linearGradient>
<linearGradient id="paint15_linear_234_12297" x1="135.784" y1="-35.515" x2="33.4426" y2="159.54" gradientUnits="userSpaceOnUse">
<stop stop-color="#59CB92"/>
<stop offset="1" stop-color="#D3F1E2"/>
</linearGradient>
<linearGradient id="paint16_linear_234_12297" x1="102.446" y1="23.9165" x2="238.453" y2="153.194" gradientUnits="userSpaceOnUse">
<stop stop-color="#59CB92"/>
<stop offset="1" stop-color="#D3F1E2"/>
</linearGradient>
<linearGradient id="paint17_linear_234_12297" x1="288.469" y1="277.775" x2="383.451" y2="277.775" gradientUnits="userSpaceOnUse">
<stop stop-color="#4F52FF"/>
<stop offset="1" stop-color="#4042E2"/>
</linearGradient>
<linearGradient id="paint18_linear_234_12297" x1="229.596" y1="337.312" x2="330.328" y2="337.312" gradientUnits="userSpaceOnUse">
<stop stop-color="#09005D"/>
<stop offset="1" stop-color="#1A0F91"/>
</linearGradient>
<linearGradient id="paint19_linear_234_12297" x1="272.457" y1="407.475" x2="282.576" y2="252.293" gradientUnits="userSpaceOnUse">
<stop stop-color="#4679EF"/>
<stop offset="1" stop-color="#4679EF"/>
</linearGradient>
<linearGradient id="paint20_linear_234_12297" x1="283.485" y1="0.15385" x2="283.485" y2="77.3658" gradientUnits="userSpaceOnUse">
<stop stop-color="#59CB92"/>
<stop offset="1" stop-color="#59CB92"/>
</linearGradient>
</defs>
</svg>
