<svg width="31" height="30" viewBox="0 0 31 30" fill="none" xmlns="http://www.w3.org/2000/svg">
<path d="M22.6738 1.81641H9.08008C8.0459 1.81641 7.20508 2.65723 7.20508 3.69141V26.1914C7.20508 27.2256 8.0459 28.0664 9.08008 28.0664H22.6738C23.708 28.0664 24.5488 27.2256 24.5488 26.1914V3.69141C24.5488 2.65723 23.708 1.81641 22.6738 1.81641ZM22.4395 25.957H9.31445V3.92578H22.4395V25.957ZM14.7051 22.9688C14.7051 23.2796 14.8285 23.5776 15.0483 23.7974C15.2681 24.0172 15.5662 24.1406 15.877 24.1406C16.1878 24.1406 16.4858 24.0172 16.7056 23.7974C16.9254 23.5776 17.0488 23.2796 17.0488 22.9688C17.0488 22.6579 16.9254 22.3599 16.7056 22.1401C16.4858 21.9203 16.1878 21.7969 15.877 21.7969C15.5662 21.7969 15.2681 21.9203 15.0483 22.1401C14.8285 22.3599 14.7051 22.6579 14.7051 22.9688Z" fill="white"/>
</svg>
