<svg width="31" height="30" viewBox="0 0 31 30" fill="none" xmlns="http://www.w3.org/2000/svg">
<path d="M7.12695 26.25C6.43945 26.25 5.85112 26.0054 5.36195 25.5163C4.87279 25.0271 4.62779 24.4383 4.62695 23.75V6.25C4.62695 5.5625 4.87195 4.97417 5.36195 4.485C5.85195 3.99583 6.44029 3.75083 7.12695 3.75H14.627C14.9811 3.75 15.2782 3.87 15.5182 4.11C15.7582 4.35 15.8778 4.64667 15.877 5C15.8761 5.35333 15.7561 5.65042 15.517 5.89125C15.2778 6.13208 14.9811 6.25167 14.627 6.25H7.12695V23.75H14.627C14.9811 23.75 15.2782 23.87 15.5182 24.11C15.7582 24.35 15.8778 24.6467 15.877 25C15.8761 25.3533 15.7561 25.6504 15.517 25.8912C15.2778 26.1321 14.9811 26.2517 14.627 26.25H7.12695ZM22.3457 16.25H13.377C13.0228 16.25 12.7261 16.13 12.487 15.89C12.2478 15.65 12.1278 15.3533 12.127 15C12.1261 14.6467 12.2461 14.35 12.487 14.11C12.7278 13.87 13.0245 13.75 13.377 13.75H22.3457L20.002 11.4062C19.7728 11.1771 19.6582 10.8958 19.6582 10.5625C19.6582 10.2292 19.7728 9.9375 20.002 9.6875C20.2311 9.4375 20.5228 9.30708 20.877 9.29625C21.2311 9.28542 21.5332 9.40542 21.7832 9.65625L26.252 14.125C26.502 14.375 26.627 14.6667 26.627 15C26.627 15.3333 26.502 15.625 26.252 15.875L21.7832 20.3438C21.5332 20.5938 21.2365 20.7137 20.8932 20.7038C20.5499 20.6938 20.2528 20.5633 20.002 20.3125C19.7728 20.0625 19.6636 19.7658 19.6745 19.4225C19.6853 19.0792 19.8049 18.7925 20.0332 18.5625L22.3457 16.25Z" fill="white"/>
</svg>
