<svg width="31" height="30" viewBox="0 0 31 30" fill="none" xmlns="http://www.w3.org/2000/svg">
<path d="M12.1357 21.25C12.1357 21.913 11.8723 22.5489 11.4035 23.0178C10.9347 23.4866 10.2988 23.75 9.63574 23.75C8.9727 23.75 8.33682 23.4866 7.86798 23.0178C7.39913 22.5489 7.13574 21.913 7.13574 21.25C7.13574 20.587 7.39913 19.9511 7.86798 19.4822C8.33682 19.0134 8.9727 18.75 9.63574 18.75C10.2988 18.75 10.9347 19.0134 11.4035 19.4822C11.8723 19.9511 12.1357 20.587 12.1357 21.25ZM24.6357 21.25C24.6357 21.913 24.3723 22.5489 23.9035 23.0178C23.4347 23.4866 22.7988 23.75 22.1357 23.75C21.4727 23.75 20.8368 23.4866 20.368 23.0178C19.8991 22.5489 19.6357 21.913 19.6357 21.25C19.6357 20.587 19.8991 19.9511 20.368 19.4822C20.8368 19.0134 21.4727 18.75 22.1357 18.75C22.7988 18.75 23.4347 19.0134 23.9035 19.4822C24.3723 19.9511 24.6357 20.587 24.6357 21.25Z" stroke="white" stroke-width="1.5" stroke-linecap="round" stroke-linejoin="round"/>
<path d="M3.38574 12.5H23.3857M3.38574 12.5C3.38574 13.475 3.36074 16.3 3.39074 19.075C3.43574 19.975 3.58574 20.725 7.13824 21.25M3.38574 12.5C3.65574 10.325 4.82949 7.75 5.42949 6.775M12.1357 12.5V6.25M19.6232 21.25H12.1295M3.40449 6.25H16.177C16.177 6.25 16.852 6.25 17.452 6.31C18.5757 6.415 19.5195 6.925 20.4645 8.2C21.4645 9.55 22.232 11.26 23.252 12.175C24.9457 13.695 28.1682 13.225 28.3482 16.45C28.3932 18.1 28.3932 19.9 28.3182 20.2C28.197 21.0837 27.5157 21.2275 26.6682 21.25C25.9332 21.27 25.047 21.215 24.6157 21.25" stroke="white" stroke-width="1.5" stroke-linecap="round" stroke-linejoin="round"/>
</svg>
