<svg width="31" height="30" viewBox="0 0 31 30" fill="none" xmlns="http://www.w3.org/2000/svg">
<path d="M16.2454 11.2682C15.476 11.1922 14.7019 11.3559 14.0291 11.7368C13.3563 12.1178 12.8177 12.6973 12.4871 13.3962C12.1564 14.0951 12.0498 14.8791 12.182 15.6409C12.3141 16.4026 12.6785 17.105 13.2252 17.6517C13.7719 18.1984 14.4742 18.5627 15.2359 18.6948C15.9977 18.827 16.7817 18.7204 17.4806 18.3898C18.1795 18.0591 18.759 17.5205 19.14 16.8477C19.5209 16.1749 19.6846 15.4009 19.6086 14.6314C19.522 13.7689 19.1398 12.9629 18.5269 12.3499C17.9139 11.737 17.1079 11.3548 16.2454 11.2682ZM25.2747 15C25.2723 15.4076 25.2424 15.8146 25.185 16.2182L27.834 18.2959C27.9494 18.3915 28.0271 18.5249 28.0534 18.6724C28.0797 18.8199 28.0528 18.972 27.9776 19.1016L25.4715 23.4375C25.3954 23.5658 25.2765 23.6632 25.1356 23.7124C24.9948 23.7616 24.8411 23.7595 24.7016 23.7064L22.0708 22.6471C21.9257 22.5893 21.7685 22.5684 21.6134 22.5863C21.4583 22.6042 21.31 22.6603 21.1819 22.7496C20.7804 23.0261 20.3585 23.2717 19.9198 23.4844C19.7819 23.5514 19.6626 23.6514 19.5724 23.7754C19.4823 23.8995 19.4241 24.0438 19.403 24.1957L19.0086 27.0018C18.9827 27.15 18.9062 27.2846 18.792 27.3826C18.6779 27.4806 18.5333 27.5359 18.3829 27.5391H13.3708C13.2228 27.5365 13.0802 27.4836 12.9663 27.3892C12.8525 27.2947 12.7742 27.1642 12.7444 27.0193L12.3506 24.2174C12.3285 24.0638 12.2688 23.9181 12.1768 23.7932C12.0848 23.6683 11.9634 23.568 11.8233 23.5014C11.3851 23.2899 10.9646 23.0436 10.5659 22.7648C10.4382 22.676 10.2904 22.6203 10.1359 22.6028C9.9813 22.5854 9.82482 22.6066 9.68052 22.6646L7.05025 23.7234C6.91086 23.7765 6.75721 23.7787 6.61636 23.7296C6.47552 23.6805 6.35652 23.5833 6.28033 23.4551L3.77427 19.1191C3.69893 18.9896 3.672 18.8375 3.69829 18.69C3.72458 18.5424 3.80237 18.409 3.91783 18.3135L6.15669 16.5557C6.27935 16.4583 6.37575 16.3318 6.43714 16.1878C6.49854 16.0437 6.52298 15.8866 6.50825 15.7307C6.48716 15.4863 6.47427 15.2426 6.47427 14.9982C6.47427 14.7539 6.48658 14.5137 6.50825 14.2746C6.52137 14.1196 6.49573 13.9639 6.43364 13.8213C6.37155 13.6787 6.27497 13.5538 6.15259 13.4578L3.9149 11.7C3.80132 11.604 3.72516 11.471 3.69977 11.3245C3.67438 11.1779 3.70138 11.0271 3.77603 10.8984L6.28208 6.5625C6.35819 6.43417 6.47715 6.33683 6.618 6.28763C6.75885 6.23843 6.91255 6.24053 7.052 6.29355L9.68286 7.35293C9.82794 7.41069 9.98509 7.43156 10.1402 7.41367C10.2953 7.39577 10.4436 7.33967 10.5717 7.25039C10.9732 6.9739 11.3952 6.72828 11.8338 6.51562C11.9718 6.44859 12.091 6.34864 12.1812 6.22458C12.2713 6.10052 12.3295 5.95618 12.3506 5.8043L12.745 2.99824C12.7709 2.85005 12.8474 2.71545 12.9616 2.61745C13.0757 2.51944 13.2203 2.46412 13.3708 2.46094H18.3829C18.5308 2.4635 18.6734 2.51637 18.7873 2.61084C18.9011 2.70531 18.9794 2.83575 19.0092 2.98066L19.403 5.78262C19.4251 5.93617 19.4848 6.08188 19.5768 6.2068C19.6688 6.33171 19.7902 6.43196 19.9303 6.49863C20.3685 6.71006 20.789 6.95636 21.1877 7.23516C21.3154 7.32399 21.4632 7.37966 21.6178 7.39716C21.7723 7.41465 21.9288 7.39341 22.0731 7.33535L24.7034 6.27656C24.8428 6.22348 24.9964 6.2213 25.1373 6.27039C25.2781 6.31948 25.3971 6.4167 25.4733 6.54492L27.9793 10.8809C28.0547 11.0104 28.0816 11.1625 28.0553 11.31C28.029 11.4576 27.9512 11.591 27.8358 11.6865L25.5969 13.4443C25.4737 13.5414 25.3768 13.6677 25.3149 13.8118C25.2529 13.9559 25.228 14.1132 25.2424 14.2693C25.2618 14.5119 25.2747 14.7557 25.2747 15Z" stroke="white" stroke-width="1.5" stroke-linecap="round" stroke-linejoin="round"/>
</svg>
