<svg width="31" height="30" viewBox="0 0 31 30" fill="none" xmlns="http://www.w3.org/2000/svg">
<path d="M21.9145 5.3125H9.83945C9.1707 5.3125 8.61445 5.3125 8.1582 5.35C7.6832 5.3875 7.2382 5.4725 6.81695 5.6875C6.17001 6.01709 5.64404 6.54306 5.31445 7.19C5.20195 7.41125 5.15695 7.685 5.13195 7.8475C5.09815 8.08817 5.07313 8.33 5.05695 8.5725C5.01695 9.11 4.9907 9.7775 4.9732 10.46C4.93945 11.825 4.93945 13.2975 4.93945 13.9975V14C4.93945 14.2486 5.03823 14.4871 5.21404 14.6629C5.38986 14.8387 5.62831 14.9375 5.87695 14.9375C6.12559 14.9375 6.36405 14.8387 6.53987 14.6629C6.71568 14.4871 6.81445 14.2486 6.81445 14C6.81445 13.65 6.81445 13.115 6.8182 12.5H24.9395V18.5C24.9395 19.215 24.9395 19.6962 24.9082 20.065C24.8795 20.425 24.827 20.5962 24.7695 20.7087C24.6196 21.0032 24.3802 21.2426 24.0857 21.3925C23.9732 21.45 23.802 21.5025 23.442 21.5312C23.0732 21.5613 22.592 21.5625 21.877 21.5625H15.877C15.6283 21.5625 15.3899 21.6613 15.214 21.8371C15.0382 22.0129 14.9395 22.2514 14.9395 22.5C14.9395 22.7486 15.0382 22.9871 15.214 23.1629C15.3899 23.3387 15.6283 23.4375 15.877 23.4375H21.9145C22.5832 23.4375 23.1395 23.4375 23.5957 23.4C24.0707 23.3625 24.5157 23.2775 24.937 23.0625C25.5837 22.7332 26.1097 22.2077 26.4395 21.5613C26.6545 21.1388 26.7395 20.6937 26.777 20.2187C26.8145 19.7625 26.8145 19.2063 26.8145 18.5388V10.2125C26.8145 9.54375 26.8145 8.9875 26.777 8.53125C26.7395 8.05625 26.6545 7.61125 26.4395 7.19C26.1105 6.54344 25.5855 6.01751 24.9395 5.6875C24.517 5.4725 24.072 5.3875 23.597 5.35C23.1407 5.3125 22.5832 5.3125 21.9145 5.3125ZM24.9395 10H6.8632C6.8782 9.52 6.9007 9.07625 6.9257 8.71125C6.9457 8.46292 6.96612 8.26708 6.98695 8.12375C6.99779 8.05625 7.00529 8.01292 7.00945 7.99375C7.16056 7.72063 7.39 7.49903 7.6682 7.3575C7.7807 7.3 7.95195 7.2475 8.3107 7.21875C8.6807 7.18875 9.1607 7.1875 9.87695 7.1875H21.877C22.592 7.1875 23.0732 7.1875 23.442 7.21875C23.802 7.2475 23.9732 7.3 24.0857 7.3575C24.3807 7.5075 24.6195 7.74625 24.7695 8.04125C24.827 8.15375 24.8795 8.325 24.9082 8.68375C24.9345 9.00875 24.9382 9.42 24.9395 10Z" fill="white"/>
<path d="M12.5195 19.8462L11.6195 20.7212C12.1845 21.7875 12.007 23.1275 11.0832 24.0225L9.64825 25.415C9.08773 25.9506 8.34229 26.2495 7.567 26.2495C6.79171 26.2495 6.04627 25.9506 5.48575 25.415C5.21462 25.1559 4.99882 24.8445 4.85138 24.4997C4.70394 24.1549 4.62793 23.7838 4.62793 23.4087C4.62793 23.0337 4.70394 22.6626 4.85138 22.3178C4.99882 21.9729 5.21462 21.6616 5.48575 21.4025L6.38575 20.53C6.10352 19.9963 6.00306 19.385 6.09961 18.789C6.19616 18.1931 6.48445 17.6448 6.92075 17.2275L8.35575 15.835C8.91627 15.2994 9.66171 15.0005 10.437 15.0005C11.2123 15.0005 11.9577 15.2994 12.5182 15.835C12.7894 16.0941 13.0052 16.4054 13.1526 16.7503C13.3001 17.0951 13.3761 17.4662 13.3761 17.8412C13.3761 18.2163 13.3001 18.5874 13.1526 18.9322C13.0052 19.277 12.7894 19.5884 12.5182 19.8475M11.7045 19.085C11.8721 18.9243 12.0054 18.7314 12.0965 18.5179C12.1876 18.3044 12.2346 18.0746 12.2346 17.8425C12.2346 17.6103 12.1876 17.3806 12.0965 17.1671C12.0054 16.9535 11.8721 16.7606 11.7045 16.6C11.3635 16.2726 10.9091 16.0898 10.4364 16.0898C9.96367 16.0898 9.50927 16.2726 9.16825 16.6L7.732 17.9925C7.50483 18.2109 7.34185 18.4875 7.26076 18.792C7.17966 19.0965 7.18355 19.4175 7.272 19.72C7.81095 19.3453 8.45717 19.156 9.11311 19.1808C9.76905 19.2056 10.3991 19.4431 10.9082 19.8575L11.7045 19.085ZM10.0945 20.625C9.77825 20.3911 9.39531 20.2649 9.002 20.2649C8.60868 20.2649 8.22574 20.3911 7.9095 20.625C8.22574 20.8588 8.60868 20.985 9.002 20.985C9.39531 20.985 9.77825 20.8588 10.0945 20.625ZM6.29825 22.1662C6.13067 22.3269 5.99732 22.5198 5.90623 22.7333C5.81513 22.9468 5.76817 23.1766 5.76817 23.4087C5.76817 23.6409 5.81513 23.8706 5.90623 24.0842C5.99732 24.2977 6.13067 24.4906 6.29825 24.6512C6.63927 24.9786 7.09367 25.1614 7.56637 25.1614C8.03908 25.1614 8.49348 24.9786 8.8345 24.6512L10.2707 23.2587C10.752 22.7925 10.9057 22.1262 10.7307 21.5312C10.1918 21.9059 9.54558 22.0952 8.88964 22.0704C8.23369 22.0456 7.60361 21.8081 7.0945 21.3937L6.29825 22.1662ZM18.377 16.25C18.0455 16.25 17.7275 16.3817 17.4931 16.6161C17.2587 16.8505 17.127 17.1685 17.127 17.5C17.127 17.8315 17.2587 18.1494 17.4931 18.3839C17.7275 18.6183 18.0455 18.75 18.377 18.75H22.127C22.4585 18.75 22.7765 18.6183 23.0109 18.3839C23.2453 18.1494 23.377 17.8315 23.377 17.5C23.377 17.1685 23.2453 16.8505 23.0109 16.6161C22.7765 16.3817 22.4585 16.25 22.127 16.25H18.377Z" fill="white"/>
</svg>
