<svg width="31" height="30" viewBox="0 0 31 30" fill="none" xmlns="http://www.w3.org/2000/svg">
<g clip-path="url(#clip0_270_722)">
<path fill-rule="evenodd" clip-rule="evenodd" d="M21.502 28.125C23.4911 28.125 25.3987 27.3348 26.8053 25.9283C28.2118 24.5218 29.002 22.6141 29.002 20.625C29.002 18.6359 28.2118 16.7282 26.8053 15.3217C25.3987 13.9152 23.4911 13.125 21.502 13.125C19.5128 13.125 17.6052 13.9152 16.1987 15.3217C14.7921 16.7282 14.002 18.6359 14.002 20.625C14.002 22.6141 14.7921 24.5218 16.1987 25.9283C17.6052 27.3348 19.5128 28.125 21.502 28.125ZM30.877 20.625C30.877 23.1114 29.8892 25.496 28.1311 27.2541C26.3729 29.0123 23.9884 30 21.502 30C19.0155 30 16.631 29.0123 14.8728 27.2541C13.1147 25.496 12.127 23.1114 12.127 20.625C12.127 18.1386 13.1147 15.754 14.8728 13.9959C16.631 12.2377 19.0155 11.25 21.502 11.25C23.9884 11.25 26.3729 12.2377 28.1311 13.9959C29.8892 15.754 30.877 18.1386 30.877 20.625Z" fill="white"/>
<path d="M18.5732 22.395C18.6613 23.5125 19.5444 24.3825 21.1288 24.4875V25.3125H21.8319V24.4819C23.4725 24.3675 24.4307 23.49 24.4307 22.2188C24.4307 21.06 23.6994 20.4637 22.3869 20.1562L21.8319 20.025V17.775C22.5369 17.8556 22.9832 18.24 23.09 18.7725H24.3238C24.2357 17.6944 23.3113 16.8525 21.8319 16.7606V15.9375H21.1288V16.7812C19.7282 16.9181 18.7757 17.76 18.7757 18.9525C18.7757 20.0062 19.4844 20.6775 20.6638 20.9512L21.1288 21.0656V23.4506C20.4088 23.3419 19.9307 22.9444 19.8238 22.395H18.5732ZM21.1232 19.8563C20.4313 19.6969 20.0563 19.3687 20.0563 18.8775C20.0563 18.3262 20.4613 17.9137 21.1288 17.7937V19.8563H21.1232ZM21.9332 21.255C22.775 21.45 23.1613 21.765 23.1613 22.3219C23.1613 22.9575 22.6794 23.3925 21.8319 23.4731V21.2325L21.9332 21.255Z" fill="white"/>
<path d="M2.75195 0C2.25467 0 1.77776 0.197544 1.42613 0.549175C1.0745 0.900806 0.876953 1.37772 0.876953 1.875L0.876953 16.875C0.876953 17.3723 1.0745 17.8492 1.42613 18.2008C1.77776 18.5525 2.25467 18.75 2.75195 18.75H10.4076C10.5176 18.1038 10.6788 17.4788 10.8913 16.875H6.50195C6.50195 15.8804 6.10686 14.9266 5.4036 14.2233C4.70034 13.5201 3.74652 13.125 2.75195 13.125V5.625C3.74652 5.625 4.70034 5.22991 5.4036 4.52665C6.10686 3.82339 6.50195 2.86956 6.50195 1.875H25.252C25.252 2.86956 25.647 3.82339 26.3503 4.52665C27.0536 5.22991 28.0074 5.625 29.002 5.625V12.24C29.7145 12.8775 30.3463 13.605 30.877 14.4038V1.875C30.877 1.37772 30.6794 0.900806 30.3278 0.549175C29.9761 0.197544 29.4992 0 29.002 0L2.75195 0Z" fill="white"/>
<path d="M19.6232 9.53065L19.627 9.37503C19.6266 8.72926 19.4594 8.09454 19.1417 7.53233C18.824 6.97012 18.3665 6.49949 17.8135 6.166C17.2605 5.83251 16.6308 5.64748 15.9853 5.62882C15.3398 5.61017 14.7004 5.75852 14.1291 6.05951C13.5578 6.36049 13.0738 6.80392 12.7242 7.34684C12.3745 7.88976 12.171 8.51377 12.1333 9.15843C12.0957 9.8031 12.2251 10.4466 12.5091 11.0265C12.7931 11.6065 13.2221 12.1033 13.7545 12.4688C15.3752 10.9279 17.4184 9.90495 19.6232 9.53065Z" fill="white"/>
</g>
<defs>
<clipPath id="clip0_270_722">
<rect width="30" height="30" fill="white" transform="translate(0.876953)"/>
</clipPath>
</defs>
</svg>
