<svg width="30" height="30" viewBox="0 0 30 30" fill="none" xmlns="http://www.w3.org/2000/svg">
<path d="M22.4104 24.5425H25.0829C25.3179 24.5462 25.5504 24.4929 25.7604 24.3872C25.9704 24.2815 26.1517 24.1265 26.2888 23.9355C26.4259 23.7445 26.5147 23.5232 26.5476 23.2904C26.5805 23.0576 26.5566 22.8203 26.4778 22.5987C25.7964 21.1402 24.7176 19.9032 23.3651 19.0299C22.0127 18.1565 20.4414 17.6822 18.8316 17.6612M18.8316 14.2125C19.4332 14.2127 20.0289 14.0943 20.5847 13.8642C21.1405 13.6341 21.6455 13.2968 22.071 12.8715C22.4964 12.4462 22.8339 11.9412 23.0641 11.3855C23.2943 10.8297 23.4129 10.2341 23.4129 9.6325C23.4145 9.02989 23.2972 8.43288 23.0677 7.87568C22.8382 7.31848 22.501 6.81206 22.0754 6.38542C21.6498 5.95879 21.1442 5.62034 20.5876 5.38946C20.0309 5.15859 19.4342 5.03983 18.8316 5.04M11.6754 14.3562C13.0525 14.3529 14.3721 13.8034 15.3447 12.8283C16.3172 11.8532 16.8632 10.5322 16.8629 9.155C16.8629 7.77886 16.3162 6.45908 15.3431 5.486C14.37 4.51292 13.0502 3.96625 11.6741 3.96625C10.298 3.96625 8.97818 4.51292 8.0051 5.486C7.03202 6.45908 6.48535 7.77886 6.48535 9.155C6.48535 10.5322 7.03166 11.8531 8.00442 12.828C8.97717 13.8028 10.2969 14.352 11.6741 14.355M17.5316 26.0337C17.9719 26.0331 18.4034 25.9107 18.7784 25.6799C19.1534 25.4491 19.4572 25.1191 19.6561 24.7263C19.855 24.3335 19.9413 23.8933 19.9054 23.4544C19.8696 23.0156 19.7129 22.5953 19.4529 22.24C18.5418 21.0306 17.3688 20.043 16.022 19.3511C14.6751 18.6593 13.1891 18.2811 11.6754 18.245C10.1615 18.2813 8.67547 18.6596 7.32857 19.3517C5.98168 20.0438 4.80882 21.0316 3.89785 22.2412C3.63867 22.5966 3.48273 23.0166 3.44724 23.4549C3.41175 23.8933 3.49809 24.3329 3.69674 24.7253C3.89538 25.1177 4.1986 25.4476 4.57291 25.6784C4.94722 25.9093 5.37806 26.0323 5.81785 26.0337H17.5316Z" stroke="#7876E9" stroke-width="1.5" stroke-linecap="round" stroke-linejoin="round"/>
</svg>
