<svg width="30" height="30" viewBox="0 0 30 30" fill="none" xmlns="http://www.w3.org/2000/svg">
<path d="M16.875 13.125C16.875 14.1196 16.4799 15.0734 15.7766 15.7766C15.0734 16.4799 14.1196 16.875 13.125 16.875C12.1304 16.875 11.1766 16.4799 10.4733 15.7766C9.77009 15.0734 9.375 14.1196 9.375 13.125C9.375 12.1304 9.77009 11.1766 10.4733 10.4733C11.1766 9.77009 12.1304 9.375 13.125 9.375C14.1196 9.375 15.0734 9.77009 15.7766 10.4733C16.4799 11.1766 16.875 12.1304 16.875 13.125ZM15 13.125C15 12.6277 14.8025 12.1508 14.4508 11.7992C14.0992 11.4475 13.6223 11.25 13.125 11.25C12.6277 11.25 12.1508 11.4475 11.7992 11.7992C11.4475 12.1508 11.25 12.6277 11.25 13.125C11.25 13.6223 11.4475 14.0992 11.7992 14.4508C12.1508 14.8025 12.6277 15 13.125 15C13.6223 15 14.0992 14.8025 14.4508 14.4508C14.8025 14.0992 15 13.6223 15 13.125ZM1.875 7.96875C1.875 6.675 2.925 5.625 4.21875 5.625H22.0312C23.325 5.625 24.375 6.675 24.375 7.96875V18.2812C24.375 19.575 23.325 20.625 22.0312 20.625H4.21875C2.925 20.625 1.875 19.575 1.875 18.2812V7.96875ZM4.21875 7.5C4.09443 7.5 3.9752 7.54939 3.88729 7.63729C3.79939 7.7252 3.75 7.84443 3.75 7.96875V9.375H4.6875C4.93614 9.375 5.1746 9.27623 5.35041 9.10041C5.52623 8.9246 5.625 8.68614 5.625 8.4375V7.5H4.21875ZM3.75 18.2812C3.75 18.54 3.96 18.75 4.21875 18.75H5.625V17.8125C5.625 17.5639 5.52623 17.3254 5.35041 17.1496C5.1746 16.9738 4.93614 16.875 4.6875 16.875H3.75V18.2812ZM7.5 17.8125V18.75H18.75V17.8125C18.75 17.0666 19.0463 16.3512 19.5738 15.8238C20.1012 15.2963 20.8166 15 21.5625 15H22.5V11.25H21.5625C20.8166 11.25 20.1012 10.9537 19.5738 10.4262C19.0463 9.89879 18.75 9.18342 18.75 8.4375V7.5H7.5V8.4375C7.5 9.18342 7.20368 9.89879 6.67624 10.4262C6.14879 10.9537 5.43342 11.25 4.6875 11.25H3.75V15H4.6875C5.43342 15 6.14879 15.2963 6.67624 15.8238C7.20368 16.3512 7.5 17.0666 7.5 17.8125ZM20.625 18.75H22.0312C22.1556 18.75 22.2748 18.7006 22.3627 18.6127C22.4506 18.5248 22.5 18.4056 22.5 18.2812V16.875H21.5625C21.3139 16.875 21.0754 16.9738 20.8996 17.1496C20.7238 17.3254 20.625 17.5639 20.625 17.8125V18.75ZM22.5 9.375V7.96875C22.5 7.84443 22.4506 7.7252 22.3627 7.63729C22.2748 7.54939 22.1556 7.5 22.0312 7.5H20.625V8.4375C20.625 8.68614 20.7238 8.9246 20.8996 9.10041C21.0754 9.27623 21.3139 9.375 21.5625 9.375H22.5ZM8.4375 24.375C7.84354 24.3752 7.26475 24.1874 6.7841 23.8384C6.30344 23.4895 5.94561 22.9973 5.76187 22.4325C6.02187 22.4775 6.28875 22.5 6.5625 22.5H22.0312C23.1501 22.5 24.2232 22.0555 25.0144 21.2644C25.8055 20.4732 26.25 19.4001 26.25 18.2812V9.53438C26.7986 9.72833 27.2735 10.0877 27.6093 10.5628C27.9451 11.038 28.1253 11.6056 28.125 12.1875V18.2812C28.125 19.0815 27.9674 19.8739 27.6611 20.6132C27.3549 21.3526 26.906 22.0243 26.3402 22.5902C25.7743 23.156 25.1026 23.6049 24.3632 23.9111C23.6239 24.2174 22.8315 24.375 22.0312 24.375H8.4375Z" fill="#F8B924"/>
</svg>
