<svg width="30" height="30" viewBox="0 0 30 30" fill="none" xmlns="http://www.w3.org/2000/svg">
<path opacity="0.78" fill-rule="evenodd" clip-rule="evenodd" d="M13.5346 9.25465C13.5555 8.99486 13.7724 8.79468 14.033 8.79468H14.5496C14.8056 8.79468 15.0203 8.9881 15.0469 9.24275L15.7144 15.6353L20.4545 18.2292C20.6148 18.317 20.7144 18.4851 20.7144 18.6679V19.0923C20.7144 19.4197 20.4049 19.6588 20.0881 19.576L13.2628 17.7934C13.0282 17.7321 12.8714 17.5113 12.8908 17.2696L13.5346 9.25465Z" fill="#F59773"/>
<path opacity="0.901274" d="M6.2832 0.372695C6.38039 -0.0168799 6.89974 -0.131959 7.16992 0.176406L9.12988 2.41371C10.933 1.67854 12.9166 1.27017 15 1.27016L15.3877 1.27504C23.4929 1.47192 30 7.82579 30 15.6354C30 23.5691 23.2843 30.0006 15 30.0006C6.71575 30.0006 4.59499e-05 23.569 0 15.6354C0 14.288 0.193463 12.9833 0.555664 11.7467L3.30664 12.486C3.00937 13.5009 2.85742 14.5572 2.85742 15.6354C2.85747 22.0578 8.29371 27.2642 15 27.2643C21.7063 27.2643 27.1425 22.0579 27.1426 15.6354C27.1426 9.31321 21.875 4.16958 15.3135 4.01039L15 4.00648C13.6413 4.00649 12.3182 4.22022 11.0703 4.62855L13.0322 6.86781C13.3029 7.17674 13.0932 7.64686 12.6748 7.66957L5.04297 8.08461C4.70041 8.1032 4.43407 7.79778 4.51367 7.47816L6.2832 0.372695Z" fill="#F59773"/>
</svg>
