<svg width="30" height="30" viewBox="0 0 30 30" fill="none" xmlns="http://www.w3.org/2000/svg">
<path d="M5 5C5 4.33696 5.26339 3.70107 5.73223 3.23223C6.20107 2.76339 6.83696 2.5 7.5 2.5H17.5C17.8315 2.50007 18.1494 2.63181 18.3837 2.86625L24.6338 9.11625C24.8682 9.35062 24.9999 9.66851 25 10V25C25 25.663 24.7366 26.2989 24.2678 26.7678C23.7989 27.2366 23.163 27.5 22.5 27.5H7.5C6.83696 27.5 6.20107 27.2366 5.73223 26.7678C5.26339 26.2989 5 25.663 5 25V5ZM21.9825 10L17.5 5.5175V10H21.9825ZM15 5H7.5V25H22.5V12.5H16.25C15.9185 12.5 15.6005 12.3683 15.3661 12.1339C15.1317 11.8995 15 11.5815 15 11.25V5ZM10 16.25C10 15.9185 10.1317 15.6005 10.3661 15.3661C10.6005 15.1317 10.9185 15 11.25 15H18.75C19.0815 15 19.3995 15.1317 19.6339 15.3661C19.8683 15.6005 20 15.9185 20 16.25C20 16.5815 19.8683 16.8995 19.6339 17.1339C19.3995 17.3683 19.0815 17.5 18.75 17.5H11.25C10.9185 17.5 10.6005 17.3683 10.3661 17.1339C10.1317 16.8995 10 16.5815 10 16.25ZM10 21.25C10 20.9185 10.1317 20.6005 10.3661 20.3661C10.6005 20.1317 10.9185 20 11.25 20H18.75C19.0815 20 19.3995 20.1317 19.6339 20.3661C19.8683 20.6005 20 20.9185 20 21.25C20 21.5815 19.8683 21.8995 19.6339 22.1339C19.3995 22.3683 19.0815 22.5 18.75 22.5H11.25C10.9185 22.5 10.6005 22.3683 10.3661 22.1339C10.1317 21.8995 10 21.5815 10 21.25Z" fill="#4679EF"/>
</svg>
