<svg width="20" height="21" viewBox="0 0 20 21" fill="none" xmlns="http://www.w3.org/2000/svg">
<path d="M13.125 11.351C13.125 11.1853 13.0592 11.0263 12.9419 10.9091C12.8247 10.7919 12.6658 10.726 12.5 10.726H7.5C7.33424 10.726 7.17527 10.7919 7.05806 10.9091C6.94085 11.0263 6.875 11.1853 6.875 11.351C6.875 11.5168 6.94085 11.6757 7.05806 11.793C7.17527 11.9102 7.33424 11.976 7.5 11.976H12.5C12.6658 11.976 12.8247 11.9102 12.9419 11.793C13.0592 11.6757 13.125 11.5168 13.125 11.351ZM13.125 14.6843C13.125 14.5186 13.0592 14.3596 12.9419 14.2424C12.8247 14.1252 12.6658 14.0593 12.5 14.0593H7.5C7.33424 14.0593 7.17527 14.1252 7.05806 14.2424C6.94085 14.3596 6.875 14.5186 6.875 14.6843C6.875 14.8501 6.94085 15.0091 7.05806 15.1263C7.17527 15.2435 7.33424 15.3093 7.5 15.3093H12.5C12.6658 15.3093 12.8247 15.2435 12.9419 15.1263C13.0592 15.0091 13.125 14.8501 13.125 14.6843Z" fill="#59CB92"/>
<path fill-rule="evenodd" clip-rule="evenodd" d="M5.83317 2.3927C5.22538 2.3927 4.64249 2.63414 4.21272 3.06391C3.78295 3.49368 3.5415 4.07658 3.5415 4.68437V16.351C3.5415 16.9588 3.78295 17.5417 4.21272 17.9715C4.64249 18.4013 5.22538 18.6427 5.83317 18.6427H14.1665C14.7743 18.6427 15.3572 18.4013 15.787 17.9715C16.2167 17.5417 16.4582 16.9588 16.4582 16.351V7.1577C16.4582 6.8402 16.3548 6.53187 16.1632 6.27853L13.6648 2.97187C13.5289 2.79196 13.3531 2.64603 13.1512 2.54554C12.9494 2.44505 12.727 2.39273 12.5015 2.3927H5.83317ZM4.7915 4.68437C4.7915 4.10937 5.25817 3.6427 5.83317 3.6427H11.8748V7.30687C11.8748 7.65187 12.1548 7.93187 12.4998 7.93187H15.2082V16.351C15.2082 16.926 14.7415 17.3927 14.1665 17.3927H5.83317C5.25817 17.3927 4.7915 16.926 4.7915 16.351V4.68437Z" fill="#59CB92"/>
</svg>
