<svg width="20" height="21" viewBox="0 0 20 21" fill="none" xmlns="http://www.w3.org/2000/svg">
<path d="M10.0002 10.9167C9.22661 10.9167 8.48475 11.224 7.93777 11.771C7.39079 12.3179 7.0835 13.0598 7.0835 13.8334C7.0835 14.6069 7.39079 15.3488 7.93777 15.8957C8.48475 16.4427 9.22661 16.75 10.0002 16.75C10.7737 16.75 11.5156 16.4427 12.0626 15.8957C12.6095 15.3488 12.9168 14.6069 12.9168 13.8334C12.9168 13.0598 12.6095 12.3179 12.0626 11.771C11.5156 11.224 10.7737 10.9167 10.0002 10.9167ZM8.75016 13.8334C8.75016 13.5018 8.88186 13.1839 9.11628 12.9495C9.3507 12.715 9.66864 12.5834 10.0002 12.5834C10.3317 12.5834 10.6496 12.715 10.884 12.9495C11.1185 13.1839 11.2502 13.5018 11.2502 13.8334C11.2502 14.1649 11.1185 14.4828 10.884 14.7172C10.6496 14.9517 10.3317 15.0834 10.0002 15.0834C9.66864 15.0834 9.3507 14.9517 9.11628 14.7172C8.88186 14.4828 8.75016 14.1649 8.75016 13.8334Z" fill="#59CB92"/>
<path d="M14.605 4.76336L11.9558 1.04919L2.215 8.83086L1.675 8.82503V8.83336H1.25V18.8334H18.75V8.83336H17.9483L16.3533 4.16753L14.605 4.76336ZM16.1875 8.83336H7.83083L14.055 6.71169L15.3233 6.30586L16.1875 8.83336ZM12.9583 5.32503L6.53333 7.51503L11.6217 3.45003L12.9583 5.32503ZM2.91667 15.6409V12.0242C3.26848 11.9 3.58804 11.6987 3.85192 11.435C4.1158 11.1712 4.31731 10.8518 4.44167 10.5H15.5583C15.6826 10.8519 15.884 11.1715 16.1479 11.4354C16.4118 11.6993 16.7314 11.9008 17.0833 12.025V15.6417C16.7314 15.7659 16.4118 15.9674 16.1479 16.2313C15.884 16.4952 15.6826 16.8148 15.5583 17.1667H4.44333C4.31849 16.8148 4.11664 16.4951 3.85252 16.2312C3.5884 15.9672 3.26867 15.7655 2.91667 15.6409Z" fill="#59CB92"/>
</svg>
