<svg width="24" height="24" viewBox="0 0 24 24" fill="none" xmlns="http://www.w3.org/2000/svg">
<path d="M10.1461 3.248C10.2956 2.87871 10.5519 2.56246 10.8822 2.33977C11.2125 2.11709 11.6018 1.99812 12.0001 1.99812C12.3985 1.99812 12.7878 2.11709 13.1181 2.33977C13.4484 2.56246 13.7047 2.87871 13.8541 3.248C15.3332 3.65423 16.6378 4.53499 17.5675 5.75487C18.4973 6.97475 19.0006 8.46622 19.0002 10V14.697L20.8322 17.445C20.9326 17.5956 20.9903 17.7707 20.9991 17.9515C21.0079 18.1323 20.9674 18.3121 20.882 18.4718C20.7966 18.6314 20.6695 18.7648 20.5142 18.8579C20.3588 18.9509 20.1812 19 20.0002 19H15.4651C15.3447 19.8331 14.9282 20.5949 14.2919 21.1459C13.6555 21.6969 12.8419 22.0002 12.0001 22.0002C11.1584 22.0002 10.3448 21.6969 9.70845 21.1459C9.07209 20.5949 8.65555 19.8331 8.53515 19H4.00015C3.81911 19 3.64145 18.9509 3.48614 18.8579C3.33083 18.7648 3.20369 18.6314 3.11828 18.4718C3.03287 18.3121 2.99239 18.1323 3.00118 17.9515C3.00996 17.7707 3.06767 17.5956 3.16815 17.445L5.00015 14.697V10C5.00015 6.776 7.18015 4.06 10.1461 3.248ZM10.5862 19C10.6894 19.2926 10.8809 19.5461 11.1343 19.7253C11.3876 19.9046 11.6903 20.0008 12.0006 20.0008C12.311 20.0008 12.6137 19.9046 12.867 19.7253C13.1204 19.5461 13.3119 19.2926 13.4151 19H10.5862ZM12.0001 5C10.6741 5 9.4023 5.52678 8.46462 6.46447C7.52693 7.40215 7.00015 8.67392 7.00015 10V15C7.00019 15.1975 6.94174 15.3907 6.83215 15.555L5.86915 17H18.1301L17.1671 15.555C17.0579 15.3905 16.9998 15.1974 17.0001 15V10C17.0001 8.67392 16.4734 7.40215 15.5357 6.46447C14.598 5.52678 13.3262 5 12.0001 5Z" fill="#fff"/>
</svg>
