<svg width="20" height="21" viewBox="0 0 20 21" fill="none" xmlns="http://www.w3.org/2000/svg">
<path d="M3.75 10.5177H7.5V11.7677H3.75V10.5177ZM3.75 8.0177H10V9.2677H3.75V8.0177ZM3.75 5.5177H10V6.7677H3.75V5.5177Z" fill="#7D97F4"/>
<path d="M8.75 16.7677H2.5V4.2677H17.5V10.5177H18.75V4.2677C18.75 3.93618 18.6183 3.61824 18.3839 3.38382C18.1495 3.1494 17.8315 3.0177 17.5 3.0177H2.5C2.16848 3.0177 1.85054 3.1494 1.61612 3.38382C1.3817 3.61824 1.25 3.93618 1.25 4.2677V16.7677C1.25 17.0992 1.3817 17.4172 1.61612 17.6516C1.85054 17.886 2.16848 18.0177 2.5 18.0177H8.75V16.7677Z" fill="#7D97F4"/>
<path d="M13.75 16.5115L12.1312 14.8927L11.25 15.774L13.75 18.274L18.75 13.274L17.8688 12.3927L13.75 16.5115Z" fill="#7D97F4"/>
</svg>
