<svg width="16" height="4" viewBox="0 0 16 4" fill="none" xmlns="http://www.w3.org/2000/svg">
<path d="M1.75 3.75499C1.28587 3.75499 0.840751 3.57062 0.512563 3.24243C0.184374 2.91424 0 2.46912 0 2.00499V1.995C9.78079e-09 1.53087 0.184374 1.08575 0.512563 0.757558C0.840751 0.429369 1.28587 0.244995 1.75 0.244995C2.21413 0.244995 2.65925 0.429369 2.98744 0.757558C3.31563 1.08575 3.5 1.53087 3.5 1.995V2.00499C3.5 2.46912 3.31563 2.91424 2.98744 3.24243C2.65925 3.57062 2.21413 3.75499 1.75 3.75499ZM13.75 3.75499C13.2859 3.75499 12.8408 3.57062 12.5126 3.24243C12.1844 2.91424 12 2.46912 12 2.00499V1.995C12 1.53087 12.1844 1.08575 12.5126 0.757558C12.8408 0.429369 13.2859 0.244995 13.75 0.244995C14.2141 0.244995 14.6592 0.429369 14.9874 0.757558C15.3156 1.08575 15.5 1.53087 15.5 1.995V2.00499C15.5 2.46912 15.3156 2.91424 14.9874 3.24243C14.6592 3.57062 14.2141 3.75499 13.75 3.75499ZM6 2.00499C6 2.46912 6.18437 2.91424 6.51256 3.24243C6.84075 3.57062 7.28587 3.75499 7.75 3.75499C8.21413 3.75499 8.65925 3.57062 8.98744 3.24243C9.31563 2.91424 9.5 2.46912 9.5 2.00499V1.995C9.5 1.53087 9.31563 1.08575 8.98744 0.757558C8.65925 0.429369 8.21413 0.244995 7.75 0.244995C7.28587 0.244995 6.84075 0.429369 6.51256 0.757558C6.18437 1.08575 6 1.53087 6 1.995V2.00499Z" fill="#979797"/>
</svg>
