<svg width="36" height="36" viewBox="0 0 36 36" fill="none" xmlns="http://www.w3.org/2000/svg">
<path d="M24 24L18 18L12 24" stroke="#59CB92" stroke-width="2" stroke-linecap="round" stroke-linejoin="round"/>
<path d="M18 18V31.5" stroke="#59CB92" stroke-width="2" stroke-linecap="round" stroke-linejoin="round"/>
<path d="M30.5852 27.585C32.0482 26.7874 33.2039 25.5253 33.87 23.9979C34.5361 22.4705 34.6745 20.7648 34.2635 19.15C33.8525 17.5352 32.9154 16.1032 31.6002 15.0801C30.285 14.057 28.6665 13.5011 27.0002 13.5H25.1102C24.6562 11.7438 23.8099 10.1135 22.6351 8.73147C21.4603 7.34945 19.9875 6.25175 18.3273 5.52089C16.6672 4.79002 14.863 4.44501 13.0504 4.5118C11.2377 4.57858 9.46378 5.05543 7.86195 5.90647C6.26011 6.75752 4.87205 7.96063 3.80212 9.42535C2.73218 10.8901 2.00822 12.5783 1.68465 14.3631C1.36109 16.1479 1.44634 17.9828 1.934 19.7299C2.42167 21.477 3.29905 23.0908 4.50019 24.45" stroke="#59CB92" stroke-width="2" stroke-linecap="round" stroke-linejoin="round"/>
<path d="M24 24L18 18L12 24" stroke="#59CB92" stroke-width="2" stroke-linecap="round" stroke-linejoin="round"/>
</svg>
